<?xml version="1.0" encoding="UTF-8" standalone="no"?>
<svg
   xmlns:dc="http://purl.org/dc/elements/1.1/"
   xmlns:cc="http://creativecommons.org/ns#"
   xmlns:rdf="http://www.w3.org/1999/02/22-rdf-syntax-ns#"
   xmlns:svg="http://www.w3.org/2000/svg"
   xmlns="http://www.w3.org/2000/svg"
   xmlns:sodipodi="http://sodipodi.sourceforge.net/DTD/sodipodi-0.dtd"
   xmlns:inkscape="http://www.inkscape.org/namespaces/inkscape"
   id="Capa_1"
   enable-background="new 0 0 512 512"
   height="29.936234"
   viewBox="0 0 29.810705 29.936234"
   width="29.810705"
   version="1.1"
   sodipodi:docname="pushpin.svg"
   inkscape:version="0.92.4 (5da689c313, 2019-01-14)">
  <metadata
     id="metadata25">
    <rdf:RDF>
      <cc:Work
         rdf:about="">
        <dc:format>image/svg+xml</dc:format>
        <dc:type
           rdf:resource="http://purl.org/dc/dcmitype/StillImage" />
        <dc:title></dc:title>
      </cc:Work>
    </rdf:RDF>
  </metadata>
  <defs
     id="defs23" />
  <sodipodi:namedview
     pagecolor="#ffffff"
     bordercolor="#666666"
     borderopacity="1"
     objecttolerance="10"
     gridtolerance="10"
     guidetolerance="10"
     inkscape:pageopacity="0"
     inkscape:pageshadow="2"
     inkscape:window-width="1920"
     inkscape:window-height="986"
     id="namedview21"
     showgrid="false"
     inkscape:zoom="1.1103093"
     inkscape:cx="103.68605"
     inkscape:cy="-232.62256"
     inkscape:window-x="-11"
     inkscape:window-y="-11"
     inkscape:window-maximized="1"
     inkscape:current-layer="g841" />
  <g
     id="g853"
     transform="translate(-66.368797,-35.125349)">
    <g
       style="stroke-width:1.03580344"
       transform="matrix(0.96543412,0,0,0.96543412,1.7648559,0)"
       id="g841">
      <g
         id="g864"
         transform="matrix(0.06698879,0,0,0.06698879,63.496689,36.382958)"
         style="stroke-width:15.46233845">
        <path
           id="path2"
           d="m 229.638,303.575 -21.213,-21.213 -42.426,42.426 -10.607,31.82 31.82,-10.607 z"
           inkscape:connector-curvature="0"
           style="fill:#acd5df;stroke-width:16.01594353" />
        <path
           sodipodi:nodetypes="cscscc"
           style="fill:#c4f3ff;stroke-width:15.46233845"
           inkscape:connector-curvature="0"
           id="path4"
           d="M 165.999,324.788 70.745614,426.18174 c -9.29958,9.89906 -10.230772,11.72142 -10.230772,25.30342 13.583,0 16.36485,0.0339 26.180614,-9.35358 L 187.212,346.001 Z" />
        <path
           id="path6"
           d="m 500.107,149.779 -21.213,-21.213 -21.213,21.213 21.213,21.213 c 5.858,5.858 15.355,5.858 21.213,0 5.858,-5.857 5.858,-15.355 0,-21.213 z"
           inkscape:connector-curvature="0"
           style="fill:#ff3e3a;stroke-width:16.01594353" />
        <path
           id="path8"
           d="m 478.893,149.779 c 5.858,-5.858 5.858,-15.355 0,-21.213 L 362.221,11.893 c -5.858,-5.858 -15.355,-5.858 -21.213,0 -5.858,5.858 -5.858,15.355 0,21.213 l 21.213,21.213 10.607,74.246 84.853,21.213 c 5.857,5.859 15.355,5.859 21.212,0.001 z"
           inkscape:connector-curvature="0"
           style="fill:#ff5d34;stroke-width:16.01594353" />
        <path
           id="path10"
           d="M 457.68,149.779 436.467,128.566 256.663,255.337 343.556,278.59 Z"
           inkscape:connector-curvature="0"
           style="fill:#cc3245;stroke-width:16.01594353" />
        <path
           id="path12"
           d="m 362.221,54.32 -128.81,114.124 23.252,86.893 65.68,2.04 114.124,-128.811 z"
           inkscape:connector-curvature="0"
           style="fill:#ff3e3a;stroke-width:16.01594353" />
        <path
           style="fill:#e7aa00;fill-opacity:1;stroke-width:15.46233845"
           id="path14"
           d="m 343.554,278.585 -21.213,-21.213 -39.669,141.662 21.213,21.213 c 38.41,-38.41 51.633,-92.476 39.669,-141.662 z"
           inkscape:connector-curvature="0" />
        <path
           style="fill:#feff34;fill-opacity:1;stroke-width:15.46233845"
           id="path16"
           d="m 326.605,292.494 c 0.12,38.544 -14.524,77.131 -43.933,106.54 L 91.753,208.115 c 38.41,-38.41 92.475,-51.633 141.662,-39.669 l 88.926,88.926 c 2.8,11.526 4.221,23.327 4.264,35.122 z"
           inkscape:connector-curvature="0" />
        <path
           sodipodi:nodetypes="csssscccccscccsscccsscccsscccsccccsccccccscccccccccscscsccsc"
           inkscape:connector-curvature="0"
           id="path18"
           d="M 505.41,144.476 367.524,6.59 C 363.274,2.34 357.624,0 351.614,0 c -6.01,0 -11.66,2.341 -15.909,6.59 -4.25,4.25 -6.591,9.9 -6.591,15.91 0,6.01 2.341,11.66 6.59,15.91 l 15.58,15.58 -119.957,106.281 c -24.641,-5.338 -50.396,-4.701 -74.742,1.879 -26.421,7.14 -50.674,21.201 -70.135,40.663 -1.407,1.406 -2.197,3.314 -2.197,5.303 0,1.989 0.79,3.897 2.197,5.303 l 90.156,90.156 -112.044443,123.03347 c -9.768414,15.05476 -9.993608,8.5715 -13.224514,26.10236 -1.914416,10.38761 6.36513,12.07406 14.073151,8.40425 6.236108,-2.96903 4.610242,-2.09935 13.412046,-7.09575 L 208.426,335.394 298.582,425.55 c 1.465,1.464 3.385,2.197 5.304,2.197 1.919,0 3.839,-0.732 5.304,-2.197 19.461,-19.461 33.521,-43.713 40.662,-70.135 6.58,-24.348 7.217,-50.102 1.879,-74.742 l 106.281,-119.958 15.579,15.579 c 4.25,4.25 9.9,6.59 15.91,6.59 6.01,0 11.661,-2.341 15.909,-6.59 4.25,-4.25 6.591,-9.9 6.591,-15.91 -10e-4,-6.008 -2.342,-11.658 -6.591,-15.908 z M 79.63807,441.21454 c -6.31671,6.22294 -10.600228,8.64562 -19.123228,10.27062 1.625,-8.523 2.247228,-10.22165 8.516228,-16.49165 L 187.212,314.181 197.819,324.788 Z M 303.749,409.505 102.495,208.251 c 34.561,-31.19 81.416,-43.425 127.142,-32.974 l 107.087,107.088 c 10.448,45.726 -1.786,92.58 -32.975,127.14 z M 494.803,165.689 c -1.416,1.417 -3.3,2.196 -5.303,2.196 -2.003,0 -3.887,-0.78 -5.303,-2.197 L 388.738,70.23 c -2.93,-2.928 -7.678,-2.93 -10.607,0 -2.929,2.929 -2.929,7.678 0,10.606 L 447.385,150.09 343.226,267.653 244.348,168.775 367.194,59.934 c 1.548,-1.372 2.461,-3.321 2.522,-5.387 0.063,-2.067 -0.73,-4.068 -2.192,-5.53 L 346.31,27.803 c -1.416,-1.417 -2.196,-3.3 -2.196,-5.303 0,-2.003 0.78,-3.886 2.197,-5.303 1.416,-1.417 3.3,-2.197 5.303,-2.197 2.003,0 3.887,0.78 5.303,2.197 l 137.887,137.886 c 1.416,1.417 2.196,3.3 2.196,5.303 0,2.003 -0.78,3.886 -2.197,5.303 z"
           style="stroke-width:15.46233845" />
      </g>
    </g>
  </g>
</svg>
