<?xml version="1.0" encoding="UTF-8" standalone="no"?>
<!-- Created with Inkscape (http://www.inkscape.org/) -->

<svg
   xmlns:dc="http://purl.org/dc/elements/1.1/"
   xmlns:cc="http://creativecommons.org/ns#"
   xmlns:rdf="http://www.w3.org/1999/02/22-rdf-syntax-ns#"
   xmlns:svg="http://www.w3.org/2000/svg"
   xmlns="http://www.w3.org/2000/svg"
   xmlns:sodipodi="http://sodipodi.sourceforge.net/DTD/sodipodi-0.dtd"
   xmlns:inkscape="http://www.inkscape.org/namespaces/inkscape"
   width="350.39844mm"
   height="155.87389mm"
   viewBox="0 0 350.39844 155.87389"
   version="1.1"
   id="svg8"
   sodipodi:docname="metaanalysis_for_biologists_paths4.svg"
   inkscape:version="0.92.4 (5da689c313, 2019-01-14)"
   style="enable-background:new"
   inkscape:export-filename="C:\Users\felix\academic\LJMU\websites\metaanalysis 2020\metaanalysis_for_biologists3.png"
   inkscape:export-xdpi="300"
   inkscape:export-ydpi="300">
  <defs
     id="defs2">
    <meshgradient
       inkscape:collect="always"
       id="meshgradient4550"
       gradientUnits="userSpaceOnUse"
       x="42.711761"
       y="76.333931">
      <meshrow
         id="meshrow12184">
        <meshpatch
           id="meshpatch12186">
          <stop
             path="c 52.0942,-8.71808e-06  118.564,-39.1958  170.657,-39.1965"
             style="stop-color:#ffffff;stop-opacity:1"
             id="stop12188" />
          <stop
             path="c -0.00423249,48.7529  23.0632,22.2768  23.0662,71.0305"
             style="stop-color:#800080;stop-opacity:1"
             id="stop12190" />
          <stop
             path="c -52.098,0.00444561  -166.719,63.2335  -218.833,63.2271"
             style="stop-color:#ffffff;stop-opacity:1"
             id="stop12192" />
          <stop
             path="c 0.0159191,-48.7464  25.1262,-46.3006  25.1101,-95.0612"
             style="stop-color:#800080;stop-opacity:1"
             id="stop12194" />
        </meshpatch>
      </meshrow>
    </meshgradient>
  </defs>
  <sodipodi:namedview
     id="base"
     pagecolor="#ffffff"
     bordercolor="#666666"
     borderopacity="1.0"
     inkscape:pageopacity="0.0"
     inkscape:pageshadow="2"
     inkscape:zoom="0.35"
     inkscape:cx="681.72955"
     inkscape:cy="479.03451"
     inkscape:document-units="mm"
     inkscape:current-layer="g14703"
     showgrid="false"
     inkscape:window-width="1920"
     inkscape:window-height="986"
     inkscape:window-x="-11"
     inkscape:window-y="-11"
     inkscape:window-maximized="1" />
  <metadata
     id="metadata5">
    <rdf:RDF>
      <cc:Work
         rdf:about="">
        <dc:format>image/svg+xml</dc:format>
        <dc:type
           rdf:resource="http://purl.org/dc/dcmitype/StillImage" />
        <dc:title></dc:title>
      </cc:Work>
    </rdf:RDF>
  </metadata>
  <g
     style="display:inline"
     id="g14703"
     inkscape:groupmode="layer"
     inkscape:label="Layer 1 copy"
     transform="translate(59.713431,-62.417771)">
    <flowRoot
       transform="scale(0.26458333)"
       style="font-style:normal;font-weight:normal;font-size:96px;line-height:10.25;font-family:sans-serif;letter-spacing:0px;word-spacing:0px;fill:#000000;fill-opacity:1;stroke:none"
       id="flowRoot14681"
       xml:space="preserve"><flowRegion
         id="flowRegion14673"><rect
           y="248.23398"
           x="148.57143"
           height="228.57143"
           width="540"
           id="rect14671" /></flowRegion><flowPara
         id="flowPara14675">Meta-analysis</flowPara><flowPara
         id="flowPara14677" /><flowPara
         id="flowPara14679" /></flowRoot>    <g
       aria-label="Meta-analysis
for 
Biologists
"
       transform="matrix(0.99773202,-0.05915142,0.05908995,0.99876993,0,0)"
       style="font-style:normal;font-weight:normal;font-size:40.48151779px;line-height:1.25;font-family:sans-serif;text-align:center;letter-spacing:0px;word-spacing:0px;text-anchor:middle;fill:#f3fb01;fill-opacity:1;stroke:none;stroke-width:0.26499999;stroke-miterlimit:4;stroke-dasharray:none;stroke-opacity:0.39591836"
       id="text14693">
      <path
         d="m -57.060644,108.51546 h -6.031746 q -0.769149,0 -1.133482,-0.32385 -0.323852,-0.36434 -0.323852,-1.13349 V 80.826099 q 0,-0.769149 0.323852,-1.093001 0.364333,-0.364334 1.133482,-0.364334 h 6.517525 q 0.647704,0 1.052519,0.283371 0.445297,0.283371 0.80963,0.931075 l 3.643337,6.598487 q 0.202408,0.364334 0.323852,0.52626 0.161926,0.161926 0.404815,0.161926 h 0.364334 q 0.242889,0 0.364334,-0.161926 0.161926,-0.161926 0.364333,-0.52626 l 3.602855,-6.598487 q 0.364334,-0.647704 0.769149,-0.931075 0.445297,-0.283371 1.093001,-0.283371 h 6.558006 q 0.769149,0 1.093001,0.364334 0.364334,0.323852 0.364334,1.093001 v 26.232021 q 0,0.76915 -0.364334,1.13349 -0.323852,0.32385 -1.093001,0.32385 h -6.234154 q -0.769148,0 -1.133482,-0.32385 -0.323852,-0.36434 -0.323852,-1.13349 V 92.808628 l -2.38841,4.412486 q -0.364333,0.688185 -0.890593,1.012038 -0.485778,0.28337 -1.254927,0.28337 h -1.619261 q -0.769149,0 -1.295409,-0.28337 -0.485778,-0.323853 -0.850111,-1.012038 l -2.38841,-4.412486 v 14.249492 q 0,0.76915 -0.364334,1.13349 -0.323852,0.32385 -1.093001,0.32385 z"
         style="font-style:normal;font-variant:normal;font-weight:normal;font-stretch:normal;font-size:40.48151779px;line-height:1.25;font-family:Bungee;-inkscape-font-specification:'Bungee, Normal';font-variant-ligatures:normal;font-variant-caps:normal;font-variant-numeric:normal;font-feature-settings:normal;text-align:center;writing-mode:lr-tb;text-anchor:middle;fill:#f3fb01;fill-opacity:1;stroke:none;stroke-width:0.26499999;stroke-miterlimit:4;stroke-dasharray:none;stroke-opacity:0.39591836"
         id="path15254" />
      <path
         d="M -9.9154871,108.51546 H -28.698911 q -0.769149,0 -1.133483,-0.32385 -0.323852,-0.36434 -0.323852,-1.13349 V 80.826099 q 0,-0.769149 0.323852,-1.093001 0.364334,-0.364334 1.133483,-0.364334 h 18.7834239 q 0.7691488,0 1.093001,0.364334 0.3643337,0.323852 0.3643337,1.093001 v 4.736338 q 0,0.769148 -0.3643337,1.133482 -0.3238522,0.323852 -1.093001,0.323852 H -21.088386 v 3.117077 h 7.893896 q 0.769149,0 1.093001,0.364334 0.364334,0.323852 0.364334,1.093001 v 4.331522 q 0,0.769149 -0.364334,1.133483 -0.323852,0.323852 -1.093001,0.323852 h -7.893896 v 3.48141 h 11.1728989 q 0.7691488,0 1.093001,0.36433 0.3643337,0.32386 0.3643337,1.093 v 4.73634 q 0,0.76915 -0.3643337,1.13349 -0.3238522,0.32385 -1.093001,0.32385 z"
         style="font-style:normal;font-variant:normal;font-weight:normal;font-stretch:normal;font-size:40.48151779px;line-height:1.25;font-family:Bungee;-inkscape-font-specification:'Bungee, Normal';font-variant-ligatures:normal;font-variant-caps:normal;font-variant-numeric:normal;font-feature-settings:normal;text-align:center;writing-mode:lr-tb;text-anchor:middle;fill:#f3fb01;fill-opacity:1;stroke:none;stroke-width:0.26499999;stroke-miterlimit:4;stroke-dasharray:none;stroke-opacity:0.39591836"
         id="path15256" />
      <path
         d="M 10.094401,108.51546 H 3.536395 q -0.7691488,0 -1.1334825,-0.32385 -0.3238521,-0.36434 -0.3238521,-1.13349 V 87.181697 h -5.9507831 q -0.7691489,0 -1.1334825,-0.323852 -0.3238522,-0.364334 -0.3238522,-1.133482 v -4.898264 q 0,-0.769149 0.3238522,-1.093001 0.3643336,-0.364334 1.1334825,-0.364334 H 17.502519 q 0.769149,0 1.093001,0.364334 0.364333,0.323852 0.364333,1.093001 v 4.898264 q 0,0.769148 -0.364333,1.133482 -0.323852,0.323852 -1.093001,0.323852 h -5.950783 v 19.876423 q 0,0.76915 -0.364334,1.13349 -0.323852,0.32385 -1.093001,0.32385 z"
         style="font-style:normal;font-variant:normal;font-weight:normal;font-stretch:normal;font-size:40.48151779px;line-height:1.25;font-family:Bungee;-inkscape-font-specification:'Bungee, Normal';font-variant-ligatures:normal;font-variant-caps:normal;font-variant-numeric:normal;font-feature-settings:normal;text-align:center;writing-mode:lr-tb;text-anchor:middle;fill:#f3fb01;fill-opacity:1;stroke:none;stroke-width:0.26499999;stroke-miterlimit:4;stroke-dasharray:none;stroke-opacity:0.39591836"
         id="path15258" />
      <path
         d="m 31.881049,87.869883 -1.902632,6.153191 h 6.355599 l -1.902632,-6.153191 q -0.161926,-0.364334 -0.364333,-0.52626 -0.161926,-0.161926 -0.404815,-0.161926 h -1.012038 q -0.242889,0 -0.445297,0.161926 -0.161926,0.161926 -0.323852,0.52626 z m -2.307447,19.188237 q 0,0.76915 -0.364333,1.13349 -0.323853,0.32385 -1.093001,0.32385 h -5.950783 q -0.769149,0 -1.133483,-0.32385 -0.323852,-0.36434 -0.323852,-1.13349 V 96.371002 q 0,-1.214446 0.364334,-2.793225 0.404815,-1.578779 1.214445,-3.683818 l 3.521892,-9.189305 q 0.242889,-0.688185 0.728667,-1.012038 0.52626,-0.323852 1.335891,-0.323852 h 10.889528 q 0.769149,0 1.254927,0.323852 0.52626,0.323853 0.769149,1.012038 l 3.521892,9.189305 q 0.80963,2.105039 1.173964,3.683818 0.404815,1.578779 0.404815,2.793225 v 10.687118 q 0,0.76915 -0.364334,1.13349 -0.323852,0.32385 -1.093001,0.32385 H 38.31761 q -0.80963,0 -1.214445,-0.32385 -0.364334,-0.36434 -0.364334,-1.13349 v -5.66741 h -7.165229 z"
         style="font-style:normal;font-variant:normal;font-weight:normal;font-stretch:normal;font-size:40.48151779px;line-height:1.25;font-family:Bungee;-inkscape-font-specification:'Bungee, Normal';font-variant-ligatures:normal;font-variant-caps:normal;font-variant-numeric:normal;font-feature-settings:normal;text-align:center;writing-mode:lr-tb;text-anchor:middle;fill:#f3fb01;fill-opacity:1;stroke:none;stroke-width:0.26499999;stroke-miterlimit:4;stroke-dasharray:none;stroke-opacity:0.39591836"
         id="path15260" />
      <path
         d="m 51.169224,98.111707 q -0.769149,0 -1.133483,-0.323852 -0.323852,-0.364334 -0.323852,-1.133483 v -5.424523 q 0,-0.769149 0.323852,-1.093001 0.364334,-0.364334 1.133483,-0.364334 H 62.01827 q 0.769149,0 1.093001,0.364334 0.364334,0.323852 0.364334,1.093001 v 5.424523 q 0,0.769149 -0.364334,1.133483 -0.323852,0.323852 -1.093001,0.323852 z"
         style="font-style:normal;font-variant:normal;font-weight:normal;font-stretch:normal;font-size:40.48151779px;line-height:1.25;font-family:Bungee;-inkscape-font-specification:'Bungee, Normal';font-variant-ligatures:normal;font-variant-caps:normal;font-variant-numeric:normal;font-feature-settings:normal;text-align:center;writing-mode:lr-tb;text-anchor:middle;fill:#f3fb01;fill-opacity:1;stroke:none;stroke-width:0.26499999;stroke-miterlimit:4;stroke-dasharray:none;stroke-opacity:0.39591836"
         id="path15262" />
      <path
         d="m 78.450614,87.869883 -1.902632,6.153191 h 6.355599 L 81.000949,87.869883 Q 80.839023,87.505549 80.636616,87.343623 80.47469,87.181697 80.2318,87.181697 h -1.012038 q -0.242889,0 -0.445296,0.161926 -0.161926,0.161926 -0.323852,0.52626 z m -2.307447,19.188237 q 0,0.76915 -0.364334,1.13349 -0.323852,0.32385 -1.093001,0.32385 h -5.950783 q -0.769148,0 -1.133482,-0.32385 -0.323852,-0.36434 -0.323852,-1.13349 V 96.371002 q 0,-1.214446 0.364333,-2.793225 0.404816,-1.578779 1.214446,-3.683818 l 3.521892,-9.189305 q 0.242889,-0.688185 0.728667,-1.012038 0.52626,-0.323852 1.33589,-0.323852 h 10.889529 q 0.769148,0 1.254927,0.323852 0.526259,0.323853 0.769149,1.012038 l 3.521892,9.189305 q 0.80963,2.105039 1.173964,3.683818 0.404815,1.578779 0.404815,2.793225 v 10.687118 q 0,0.76915 -0.364334,1.13349 -0.323852,0.32385 -1.093001,0.32385 h -6.112709 q -0.80963,0 -1.214446,-0.32385 -0.364333,-0.36434 -0.364333,-1.13349 v -5.66741 h -7.165229 z"
         style="font-style:normal;font-variant:normal;font-weight:normal;font-stretch:normal;font-size:40.48151779px;line-height:1.25;font-family:Bungee;-inkscape-font-specification:'Bungee, Normal';font-variant-ligatures:normal;font-variant-caps:normal;font-variant-numeric:normal;font-feature-settings:normal;text-align:center;writing-mode:lr-tb;text-anchor:middle;fill:#f3fb01;fill-opacity:1;stroke:none;stroke-width:0.26499999;stroke-miterlimit:4;stroke-dasharray:none;stroke-opacity:0.39591836"
         id="path15264" />
      <path
         d="m 104.98498,108.51546 h -6.072228 q -0.769148,0 -1.133482,-0.32385 -0.323852,-0.36434 -0.323852,-1.13349 V 80.826099 q 0,-0.769149 0.323852,-1.093001 0.364334,-0.364334 1.133482,-0.364334 h 4.210078 q 0.76915,0 1.29541,0.242889 0.56674,0.24289 1.093,0.850112 l 7.85341,8.986897 v -8.622563 q 0,-0.769149 0.32386,-1.093001 0.36433,-0.364334 1.13348,-0.364334 h 6.07223 q 0.76915,0 1.093,0.364334 0.36433,0.323852 0.36433,1.093001 v 26.232021 q 0,0.76915 -0.36433,1.13349 -0.32385,0.32385 -1.093,0.32385 h -6.07223 q -0.76915,0 -1.13348,-0.32385 -0.32386,-0.36434 -0.32386,-1.13349 v -4.97922 l -6.92234,-8.379678 v 13.358898 q 0,0.76915 -0.36433,1.13349 -0.32385,0.32385 -1.093,0.32385 z"
         style="font-style:normal;font-variant:normal;font-weight:normal;font-stretch:normal;font-size:40.48151779px;line-height:1.25;font-family:Bungee;-inkscape-font-specification:'Bungee, Normal';font-variant-ligatures:normal;font-variant-caps:normal;font-variant-numeric:normal;font-feature-settings:normal;text-align:center;writing-mode:lr-tb;text-anchor:middle;fill:#f3fb01;fill-opacity:1;stroke:none;stroke-width:0.26499999;stroke-miterlimit:4;stroke-dasharray:none;stroke-opacity:0.39591836"
         id="path15266" />
      <path
         d="m 138.54037,87.869883 -1.90264,6.153191 h 6.3556 l -1.90263,-6.153191 q -0.16192,-0.364334 -0.36433,-0.52626 -0.16193,-0.161926 -0.40482,-0.161926 h -1.01204 q -0.24288,0 -0.44529,0.161926 -0.16193,0.161926 -0.32385,0.52626 z m -2.30745,19.188237 q 0,0.76915 -0.36433,1.13349 -0.32386,0.32385 -1.09301,0.32385 h -5.95078 q -0.76915,0 -1.13348,-0.32385 -0.32385,-0.36434 -0.32385,-1.13349 V 96.371002 q 0,-1.214446 0.36433,-2.793225 0.40482,-1.578779 1.21445,-3.683818 l 3.52189,-9.189305 q 0.24289,-0.688185 0.72867,-1.012038 0.52626,-0.323852 1.33589,-0.323852 h 10.88952 q 0.76915,0 1.25493,0.323852 0.52626,0.323853 0.76915,1.012038 l 3.52189,9.189305 q 0.80963,2.105039 1.17397,3.683818 0.40481,1.578779 0.40481,2.793225 v 10.687118 q 0,0.76915 -0.36433,1.13349 -0.32385,0.32385 -1.093,0.32385 h -6.11271 q -0.80963,0 -1.21445,-0.32385 -0.36433,-0.36434 -0.36433,-1.13349 v -5.66741 h -7.16523 z"
         style="font-style:normal;font-variant:normal;font-weight:normal;font-stretch:normal;font-size:40.48151779px;line-height:1.25;font-family:Bungee;-inkscape-font-specification:'Bungee, Normal';font-variant-ligatures:normal;font-variant-caps:normal;font-variant-numeric:normal;font-feature-settings:normal;text-align:center;writing-mode:lr-tb;text-anchor:middle;fill:#f3fb01;fill-opacity:1;stroke:none;stroke-width:0.26499999;stroke-miterlimit:4;stroke-dasharray:none;stroke-opacity:0.39591836"
         id="path15268" />
      <path
         d="m 179.6076,108.51546 h -20.6051 q -0.76914,0 -1.13348,-0.32385 -0.32385,-0.36434 -0.32385,-1.13349 V 80.826099 q 0,-0.769149 0.32385,-1.093001 0.36434,-0.364334 1.13348,-0.364334 h 6.27464 q 0.76915,0 1.093,0.364334 0.36433,0.323852 0.36433,1.093001 v 20.038351 h 5.54597 v -6.558006 q 0,-0.769148 0.32385,-1.093001 0.36434,-0.364333 1.13349,-0.364333 h 5.86982 q 0.76915,0 1.093,0.364333 0.36433,0.323853 0.36433,1.093001 v 12.751676 q 0,0.76915 -0.36433,1.13349 -0.32385,0.32385 -1.093,0.32385 z"
         style="font-style:normal;font-variant:normal;font-weight:normal;font-stretch:normal;font-size:40.48151779px;line-height:1.25;font-family:Bungee;-inkscape-font-specification:'Bungee, Normal';font-variant-ligatures:normal;font-variant-caps:normal;font-variant-numeric:normal;font-feature-settings:normal;text-align:center;writing-mode:lr-tb;text-anchor:middle;fill:#f3fb01;fill-opacity:1;stroke:none;stroke-width:0.26499999;stroke-miterlimit:4;stroke-dasharray:none;stroke-opacity:0.39591836"
         id="path15270" />
      <path
         d="m 198.41252,108.51546 h -6.558 q -0.76915,0 -1.13349,-0.32385 -0.32385,-0.36434 -0.32385,-1.13349 v -5.18163 l -6.19367,-8.298713 q -0.93108,-1.254927 -1.25493,-2.186002 -0.28337,-0.931075 -0.28337,-2.793225 v -7.772451 q 0,-0.769149 0.32385,-1.093001 0.36434,-0.364334 1.13349,-0.364334 h 6.23415 q 0.76915,0 1.093,0.364334 0.36434,0.323852 0.36434,1.093001 v 6.638969 q 0,0.404815 0.0405,0.850112 0.0405,0.445296 0.32385,0.850112 l 1.86215,2.914669 q 0.20241,0.364334 0.40481,0.52626 0.24289,0.161926 0.56675,0.161926 h 0.40481 q 0.32385,0 0.52626,-0.161926 0.24289,-0.161926 0.4453,-0.52626 l 1.86215,-2.914669 q 0.28337,-0.404816 0.32385,-0.850112 0.0405,-0.445297 0.0405,-0.850112 v -6.638969 q 0,-0.769149 0.32385,-1.093001 0.36434,-0.364334 1.13348,-0.364334 h 6.03175 q 0.76915,0 1.093,0.364334 0.36434,0.323852 0.36434,1.093001 v 7.772451 q 0,1.86215 -0.32386,2.793225 -0.32385,0.931075 -1.21444,2.186002 l -6.15319,8.339193 v 5.14115 q 0,0.76915 -0.36434,1.13349 -0.32385,0.32385 -1.093,0.32385 z"
         style="font-style:normal;font-variant:normal;font-weight:normal;font-stretch:normal;font-size:40.48151779px;line-height:1.25;font-family:Bungee;-inkscape-font-specification:'Bungee, Normal';font-variant-ligatures:normal;font-variant-caps:normal;font-variant-numeric:normal;font-feature-settings:normal;text-align:center;writing-mode:lr-tb;text-anchor:middle;fill:#f3fb01;fill-opacity:1;stroke:none;stroke-width:0.26499999;stroke-miterlimit:4;stroke-dasharray:none;stroke-opacity:0.39591836"
         id="path15272" />
      <path
         d="m 225.70023,108.51546 h -12.79216 q -0.76915,0 -1.13348,-0.32385 -0.32386,-0.36434 -0.32386,-1.13349 v -4.73634 q 0,-0.76914 0.32386,-1.093 0.36433,-0.36433 1.13348,-0.36433 h 10.88953 q 0.52626,0 0.76915,-0.32385 0.28337,-0.36434 0.28337,-0.850114 0,-0.688186 -0.28337,-1.012038 -0.24289,-0.323852 -0.76915,-0.364333 l -6.07223,-0.850112 q -2.83371,-0.404815 -4.57441,-1.86215 -1.70023,-1.457335 -1.70023,-4.857782 v -4.25056 q 0,-3.440929 2.22649,-5.262597 2.22648,-1.86215 6.15319,-1.86215 h 11.33482 q 0.76915,0 1.093,0.364334 0.36434,0.323852 0.36434,1.093001 V 85.6434 q 0,0.769148 -0.36434,1.133482 -0.32385,0.323852 -1.093,0.323852 h -9.43219 q -0.52626,0 -0.80963,0.364334 -0.28337,0.323852 -0.28337,0.850112 0,0.52626 0.28337,0.890593 0.28337,0.364334 0.80963,0.404815 l 6.03175,0.809631 q 2.8337,0.404815 4.57441,1.86215 1.7407,1.457334 1.7407,4.857782 v 4.250559 q 0,3.44093 -2.26696,5.30308 -2.22649,1.82167 -6.11271,1.82167 z"
         style="font-style:normal;font-variant:normal;font-weight:normal;font-stretch:normal;font-size:40.48151779px;line-height:1.25;font-family:Bungee;-inkscape-font-specification:'Bungee, Normal';font-variant-ligatures:normal;font-variant-caps:normal;font-variant-numeric:normal;font-feature-settings:normal;text-align:center;writing-mode:lr-tb;text-anchor:middle;fill:#f3fb01;fill-opacity:1;stroke:none;stroke-width:0.26499999;stroke-miterlimit:4;stroke-dasharray:none;stroke-opacity:0.39591836"
         id="path15274" />
      <path
         d="m 239.31783,108.51546 q -0.76915,0 -1.13348,-0.32385 -0.32386,-0.36434 -0.32386,-1.13349 v -4.8173 q 0,-0.76915 0.32386,-1.093 0.36433,-0.36433 1.13348,-0.36433 h 4.00767 V 87.181697 h -4.00767 q -0.76915,0 -1.13348,-0.323852 -0.32386,-0.364334 -0.32386,-1.133482 v -4.898264 q 0,-0.769149 0.32386,-1.093001 0.36433,-0.364334 1.13348,-0.364334 h 17.24512 q 0.76915,0 1.09301,0.364334 0.36433,0.323852 0.36433,1.093001 v 4.898264 q 0,0.769148 -0.36433,1.133482 -0.32386,0.323852 -1.09301,0.323852 h -3.9267 v 13.601793 h 3.9267 q 0.76915,0 1.09301,0.36433 0.36433,0.32385 0.36433,1.093 v 4.8173 q 0,0.76915 -0.36433,1.13349 -0.32386,0.32385 -1.09301,0.32385 z"
         style="font-style:normal;font-variant:normal;font-weight:normal;font-stretch:normal;font-size:40.48151779px;line-height:1.25;font-family:Bungee;-inkscape-font-specification:'Bungee, Normal';font-variant-ligatures:normal;font-variant-caps:normal;font-variant-numeric:normal;font-feature-settings:normal;text-align:center;writing-mode:lr-tb;text-anchor:middle;fill:#f3fb01;fill-opacity:1;stroke:none;stroke-width:0.26499999;stroke-miterlimit:4;stroke-dasharray:none;stroke-opacity:0.39591836"
         id="path15276" />
      <path
         d="m 276.53934,108.51546 h -12.79216 q -0.76915,0 -1.13348,-0.32385 -0.32385,-0.36434 -0.32385,-1.13349 v -4.73634 q 0,-0.76914 0.32385,-1.093 0.36433,-0.36433 1.13348,-0.36433 h 10.88953 q 0.52626,0 0.76915,-0.32385 0.28337,-0.36434 0.28337,-0.850114 0,-0.688186 -0.28337,-1.012038 -0.24289,-0.323852 -0.76915,-0.364333 l -6.07223,-0.850112 q -2.83371,-0.404815 -4.57441,-1.86215 -1.70022,-1.457335 -1.70022,-4.857782 v -4.25056 q 0,-3.440929 2.22648,-5.262597 2.22648,-1.86215 6.15319,-1.86215 h 11.33482 q 0.76915,0 1.09301,0.364334 0.36433,0.323852 0.36433,1.093001 V 85.6434 q 0,0.769148 -0.36433,1.133482 -0.32386,0.323852 -1.09301,0.323852 h -9.43219 q -0.52626,0 -0.80963,0.364334 -0.28337,0.323852 -0.28337,0.850112 0,0.52626 0.28337,0.890593 0.28337,0.364334 0.80963,0.404815 l 6.03175,0.809631 q 2.8337,0.404815 4.57441,1.86215 1.7407,1.457334 1.7407,4.857782 v 4.250559 q 0,3.44093 -2.26696,5.30308 -2.22648,1.82167 -6.11271,1.82167 z"
         style="font-style:normal;font-variant:normal;font-weight:normal;font-stretch:normal;font-size:40.48151779px;line-height:1.25;font-family:Bungee;-inkscape-font-specification:'Bungee, Normal';font-variant-ligatures:normal;font-variant-caps:normal;font-variant-numeric:normal;font-feature-settings:normal;text-align:center;writing-mode:lr-tb;text-anchor:middle;fill:#f3fb01;fill-opacity:1;stroke:none;stroke-width:0.26499999;stroke-miterlimit:4;stroke-dasharray:none;stroke-opacity:0.39591836"
         id="path15278" />
      <path
         d="m 96.017996,119.35111 q 0.52626,-0.16192 1.173964,-0.16192 0.688186,-0.0405 1.295409,0.28337 0.647705,0.28337 1.093002,0.97155 0.445299,0.64771 0.526259,1.86215 0.12145,2.46938 -0.485778,5.30309 -0.566741,2.79322 -1.700224,5.66741 -1.133483,2.83371 -2.712263,5.54597 -1.57878,2.71226 -3.481412,4.97923 -1.862151,2.22648 -3.967191,3.84575 -2.10504,1.57878 -4.250561,2.186 l -0.445297,1.01204 q 0.485778,0.6477 0.890594,1.5383 0.404815,0.85011 0.728667,1.86215 2.469374,-0.28337 5.019711,-0.93108 2.590818,-0.6477 4.73634,-1.37637 2.145521,-0.76915 3.562375,-1.45734 1.457335,-0.68818 1.659743,-1.05252 0.242889,-0.40481 0.647706,-0.48577 0.4453,-0.081 0.80963,0.12144 0.36433,0.16193 0.56674,0.56674 0.20241,0.40482 -0.0405,1.01204 -0.16193,0.36433 -0.89059,0.93108 -0.72867,0.52626 -1.902637,1.13348 -1.173964,0.60722 -2.712263,1.25493 -1.538298,0.60722 -3.319486,1.17396 -1.781187,0.56674 -3.68382,1.01204 -1.902632,0.40481 -3.805264,0.60722 0.323852,1.5383 0.445297,2.91467 0.121444,1.37638 0.08096,2.22649 -0.121445,2.06456 -0.769149,4.04815 -0.607223,2.02408 -1.57878,3.76478 -0.971557,1.74071 -2.226485,3.15756 -1.254927,1.41686 -2.6313,2.30745 -1.416853,0.8906 -2.874189,1.17397 -1.497817,0.28337 -2.91467,-0.20241 -0.364334,-0.12145 -0.809631,-0.36434 -0.445297,-0.2024 -0.809631,-0.56674 -0.364334,-0.32385 -0.566741,-0.85011 -0.202408,-0.48578 -0.08096,-1.21445 0.08096,-0.48577 0.607223,-2.14552 0.485778,-1.61926 1.33589,-4.04815 0.850113,-2.42889 1.983596,-5.50549 1.133483,-3.0766 2.469373,-6.51753 -0.769149,-0.93107 -0.688186,-2.10504 0.121445,-1.70022 1.012039,-2.50985 0.850112,-0.80963 1.902632,-1.01204 1.416854,-3.48141 2.914671,-6.96282 1.538298,-3.5219 3.036115,-6.76042 1.538298,-3.23852 3.036115,-6.07223 1.497817,-2.83371 2.874189,-5.01971 1.416854,-2.18601 2.671782,-3.5219 1.254927,-1.33589 2.266966,-1.61926 z m -0.931076,4.45297 q -0.647704,1.33589 -1.740706,3.7243 -1.093001,2.38841 -2.428892,5.42453 -1.335891,3.03611 -2.874189,6.55801 -1.538298,3.48141 -3.117078,7.08427 1.902632,-1.25493 3.481412,-3.03612 1.619261,-1.78119 2.874189,-3.84574 1.295409,-2.06456 2.266966,-4.25057 0.971557,-2.22648 1.619261,-4.29104 0.647705,-2.10504 0.971557,-3.92671 0.364334,-1.82167 0.445297,-3.11708 0.08096,-1.61926 -0.404815,-1.65974 -0.445297,-0.081 -1.093002,1.33589 z M 81.889939,156.8775 q -0.728667,0 -1.376372,-0.12145 -1.254928,2.95515 -2.307448,5.54597 -1.093001,2.6313 -1.902632,4.6149 -0.80963,1.98359 -1.254927,3.19804 -0.485779,1.25493 -0.485779,1.49782 -0.04048,1.25492 0.485779,1.53829 0.485778,0.28338 1.295409,-0.16192 0.769149,-0.4453 1.740706,-1.57878 0.971557,-1.093 1.781187,-2.6313 0.850113,-1.5383 1.457336,-3.44093 0.607223,-1.86215 0.728667,-3.92671 0.04048,-0.40482 0.04048,-1.70023 0,-1.2954 -0.04048,-2.8337 z m -0.323852,-2.55034 q 0.121445,0.0405 0.323852,0.0405 0,-0.16192 -0.04048,-0.32385 0,-0.16193 0,-0.32385 z"
         style="font-style:normal;font-variant:normal;font-weight:normal;font-stretch:normal;font-size:40.48153687px;font-family:'Bite Chocolate';-inkscape-font-specification:'Bite Chocolate, Normal';font-variant-ligatures:normal;font-variant-caps:normal;font-variant-numeric:normal;font-feature-settings:normal;text-align:center;writing-mode:lr-tb;text-anchor:middle;fill:#f3fb01;fill-opacity:1;stroke:none;stroke-width:0.26499999"
         id="path15280" />
      <path
         d="m 95.038215,156.95846 q -0.485778,-2.14552 -0.202407,-3.92671 0.242889,-1.82167 1.012038,-3.279 0.769149,-1.45734 1.902632,-2.50986 1.173965,-1.093 2.469372,-1.78119 0.36434,-0.89059 0.97156,-1.70022 0.60722,-0.85011 1.41685,-1.45734 0.80963,-0.6477 1.74071,-1.05252 0.93107,-0.40481 1.94311,-0.48577 1.90263,-0.16193 3.27901,0.36433 1.37637,0.48578 2.26696,1.41685 0.93108,0.8906 1.41686,2.10504 0.52626,1.17397 0.72866,2.34793 0.28338,1.61926 0,3.35997 -0.28337,1.74071 -0.97155,3.44093 2.06456,-0.48578 3.76478,-1.45734 1.74071,-1.01203 3.0766,-2.10504 1.37637,-1.13348 2.38841,-2.14552 1.05252,-1.05252 1.7407,-1.65974 0.36434,-0.28337 0.72867,-0.20241 0.40482,0.0405 0.68819,0.32385 0.32385,0.24289 0.40481,0.68819 0.12145,0.4453 -0.081,0.85011 -0.52626,1.05252 -1.82167,2.59082 -1.29541,1.5383 -3.23852,2.95515 -1.90263,1.41686 -4.37201,2.50986 -2.46937,1.05252 -5.34356,1.21445 -1.65974,2.186 -3.84575,3.60285 -2.14552,1.37637 -4.49345,1.33589 -2.186,-0.0405 -3.602854,-0.68818 -1.376372,-0.64771 -2.226485,-1.49782 -0.850112,-0.85011 -1.214446,-1.70022 -0.404815,-0.8906 -0.52626,-1.45734 z m 11.334835,-3.31949 q 1.61926,0.40482 3.11707,0.48578 0.72867,-1.5383 1.05252,-3.23852 0.36434,-1.70023 0.20241,-3.31949 -0.081,-1.05252 -0.32385,-1.94311 -0.24289,-0.93108 -0.80963,-1.57878 -0.52626,-0.68819 -1.45734,-1.01204 -0.89059,-0.32385 -2.26696,-0.16193 -0.72867,0.12145 -1.29541,0.56675 -0.56674,0.40481 -0.97156,0.97155 1.21445,-0.16192 2.30745,0.081 0.40481,0.081 0.80963,0.72866 0.40481,0.64771 0.6477,1.41686 0.28337,0.72867 0.32386,1.33589 0.0405,0.56674 -0.20241,0.52626 -2.79323,-0.36434 -4.65538,0.32385 0,0.60722 0.081,1.33589 0.081,0.72867 0.40482,1.41686 0.32385,0.6477 1.01204,1.21444 0.72867,0.52626 2.02408,0.85011 z m -0.36434,3.15756 q -1.57878,-0.44529 -2.67178,-1.01203 -1.05252,-0.60723 -1.74071,-1.29541 -0.68818,-0.68819 -1.05252,-1.45734 -0.32385,-0.80963 -0.48577,-1.65974 -0.445301,0.93107 -0.607227,2.06456 -0.121445,1.093 0.04048,2.30744 0.24289,1.82167 1.173966,2.67179 0.97156,0.85011 2.38841,0.80963 1.25493,0 2.34793,-0.56675 1.13348,-0.56674 2.06456,-1.49781 -0.72867,-0.12145 -1.45734,-0.36434 z"
         style="font-style:normal;font-variant:normal;font-weight:normal;font-stretch:normal;font-size:40.48153687px;font-family:'Bite Chocolate';-inkscape-font-specification:'Bite Chocolate, Normal';font-variant-ligatures:normal;font-variant-caps:normal;font-variant-numeric:normal;font-feature-settings:normal;text-align:center;writing-mode:lr-tb;text-anchor:middle;fill:#f3fb01;fill-opacity:1;stroke:none;stroke-width:0.26499999"
         id="path15282" />
      <path
         d="m 123.52836,138.0131 q 2.26697,-0.32385 3.35997,0.85011 1.093,1.17397 0.89059,3.48142 -0.081,1.2954 -0.4453,2.38841 -0.32385,1.05252 -0.80963,1.86215 0.8906,-0.24289 1.74071,-0.56675 0.89059,-0.32385 1.61926,-0.60722 0.72867,-0.28337 1.25493,-0.48578 0.52626,-0.24289 0.76915,-0.28337 0.44529,-0.081 0.89059,0.4453 0.4453,0.52626 0.76915,1.25493 0.32385,0.68818 0.4453,1.37637 0.16192,0.6477 0.0405,0.80963 -1.94312,2.71226 -2.99564,4.73634 -1.01203,1.9836 -1.41685,3.40045 -0.40481,1.41685 -0.32385,2.34793 0.081,0.89059 0.40481,1.41685 0.36434,0.52626 0.80963,0.72867 0.48578,0.20241 0.85012,0.20241 1.25492,0.0405 2.59082,-0.85011 1.37637,-0.8906 2.71226,-2.26697 1.33589,-1.37637 2.55034,-3.03612 1.21444,-1.65974 2.14552,-3.15756 0.93107,-1.53829 1.5383,-2.71226 0.60722,-1.17396 0.72866,-1.57878 0.12145,-0.40481 0.40482,-0.56674 0.32385,-0.16193 0.6477,-0.081 0.32386,0.0405 0.60723,0.32385 0.32385,0.28337 0.44529,0.76915 0.12145,0.44529 -0.52626,1.90263 -0.6477,1.45734 -1.86215,3.40045 -1.17396,1.90263 -2.83371,4.00767 -1.61926,2.06456 -3.52189,3.7243 -1.86215,1.65975 -3.88623,2.6313 -2.02407,1.01204 -4.00767,0.68819 -2.06456,-0.32385 -3.279,-1.74071 -1.17397,-1.37637 -1.37638,-3.40045 -0.2024,-2.06455 0.64771,-4.53393 0.85011,-2.46937 2.91467,-4.89826 0.081,-0.12145 0.12144,-0.28338 0.0405,-0.2024 -0.0405,-0.32385 -0.081,-0.16192 -0.28337,-0.16192 -0.16192,-0.0405 -0.52626,0.24289 -0.24289,0.2024 -0.97155,0.44529 -0.72867,0.24289 -1.65975,0.32385 -0.93107,0.081 -1.98359,-0.0405 -1.01204,-0.12144 -1.90264,-0.68818 -0.85011,-0.56674 -1.45733,-1.65975 -0.60722,-1.093 -0.68819,-2.87419 -0.0405,-0.76914 0.24289,-1.90263 0.24289,-1.13348 0.85011,-2.186 0.60723,-1.05252 1.5383,-1.86215 0.97156,-0.80963 2.26697,-1.01204 z m -1.82167,8.3392 q 0.20241,0.48578 0.80963,0.68818 0.48578,-0.68818 0.97156,-1.78118 0.52626,-1.09301 0.72867,-2.6313 0.2024,-1.29541 -0.32386,-1.70023 -0.48578,-0.40481 -1.37637,0.80963 -0.60722,0.85011 -0.89059,1.57878 -0.24289,0.72867 -0.28337,1.33589 0,0.56674 0.12144,1.01204 0.12145,0.40482 0.24289,0.68819 z"
         style="font-style:normal;font-variant:normal;font-weight:normal;font-stretch:normal;font-size:40.48153687px;font-family:'Bite Chocolate';-inkscape-font-specification:'Bite Chocolate, Normal';font-variant-ligatures:normal;font-variant-caps:normal;font-variant-numeric:normal;font-feature-settings:normal;text-align:center;writing-mode:lr-tb;text-anchor:middle;fill:#f3fb01;fill-opacity:1;stroke:none;stroke-width:0.26499999"
         id="path15284" />
      <path
         d="M -7.4217637,217.114 H -22.966667 q -0.769148,0 -1.133482,-0.32385 -0.323852,-0.36433 -0.323852,-1.13348 v -26.23202 q 0,-0.76915 0.323852,-1.093 0.364334,-0.36434 1.133482,-0.36434 h 12.913605 q 3.9671884,0 5.8698197,1.5383 1.9026314,1.49782 1.9026314,4.65537 v 1.94312 q 0,1.70022 -0.6072228,2.79322 -0.5667413,1.05252 -1.7811868,1.57878 2.5908171,0.24289 3.84574419,1.78119 1.25492706,1.5383 1.25492706,4.49345 v 3.7243 q 0,3.40044 -1.94311285,5.0197 -1.9026313,1.61926 -5.9103016,1.61926 z M -15.31566,194.84917 v 4.372 h 3.440929 q 0.769149,0 1.133483,-0.40481 0.404815,-0.40482 0.404815,-1.21445 v -1.13348 q 0,-0.80963 -0.404815,-1.21444 -0.364334,-0.40482 -1.133483,-0.40482 z m 0,10.60616 v 4.77682 h 5.262598 q 0.7691485,0 1.1334821,-0.40482 0.4048152,-0.40481 0.4048152,-1.21444 v -1.57878 q 0,-0.80963 -0.4048152,-1.17397 -0.3643336,-0.40481 -1.1334821,-0.40481 z"
         style="font-style:normal;font-variant:normal;font-weight:normal;font-stretch:normal;font-size:40.48151779px;line-height:1.25;font-family:Bungee;-inkscape-font-specification:'Bungee, Normal';font-variant-ligatures:normal;font-variant-caps:normal;font-variant-numeric:normal;font-feature-settings:normal;text-align:center;writing-mode:lr-tb;text-anchor:middle;fill:#f3fb01;fill-opacity:1;stroke:none;stroke-width:0.26499999;stroke-miterlimit:4;stroke-dasharray:none;stroke-opacity:0.39591836"
         id="path15286" />
      <path
         d="m 5.7189174,217.114 q -0.7691489,0 -1.1334825,-0.32385 -0.3238522,-0.36433 -0.3238522,-1.13348 v -4.8173 q 0,-0.76915 0.3238522,-1.093 0.3643336,-0.36434 1.1334825,-0.36434 H 9.7265876 V 195.78024 H 5.7189174 q -0.7691489,0 -1.1334825,-0.32385 -0.3238522,-0.36433 -0.3238522,-1.13348 v -4.89826 q 0,-0.76915 0.3238522,-1.093 0.3643336,-0.36434 1.1334825,-0.36434 H 22.964044 q 0.769149,0 1.093001,0.36434 0.364334,0.32385 0.364334,1.093 v 4.89826 q 0,0.76915 -0.364334,1.13348 -0.323852,0.32385 -1.093001,0.32385 h -3.926707 v 13.60179 h 3.926707 q 0.769149,0 1.093001,0.36434 0.364334,0.32385 0.364334,1.093 v 4.8173 q 0,0.76915 -0.364334,1.13348 -0.323852,0.32385 -1.093001,0.32385 z"
         style="font-style:normal;font-variant:normal;font-weight:normal;font-stretch:normal;font-size:40.48151779px;line-height:1.25;font-family:Bungee;-inkscape-font-specification:'Bungee, Normal';font-variant-ligatures:normal;font-variant-caps:normal;font-variant-numeric:normal;font-feature-settings:normal;text-align:center;writing-mode:lr-tb;text-anchor:middle;fill:#f3fb01;fill-opacity:1;stroke:none;stroke-width:0.26499999;stroke-miterlimit:4;stroke-dasharray:none;stroke-opacity:0.39591836"
         id="path15288" />
      <path
         d="m 54.113307,209.463 q 0,1.86215 -0.566741,3.40045 -0.52626,1.49781 -1.943113,2.59081 -1.376372,1.05252 -3.845744,1.65974 -2.428892,0.60723 -6.193673,0.60723 -3.764781,0 -6.234153,-0.60723 -2.469373,-0.60722 -3.886226,-1.65974 -1.376372,-1.093 -1.943113,-2.59081 -0.52626,-1.5383 -0.52626,-3.40045 v -13.8042 q 0,-1.86215 0.52626,-3.35997 0.566741,-1.53829 1.943113,-2.63129 1.416853,-1.09301 3.886226,-1.70023 2.469372,-0.60722 6.234153,-0.60722 3.764781,0 6.193673,0.60722 2.469372,0.60722 3.845744,1.70023 1.416853,1.093 1.943113,2.63129 0.566741,1.49782 0.566741,3.35997 z m -15.949718,-1.45734 q 0,0.80963 0.607223,1.37637 0.607222,0.52626 2.793224,0.52626 2.186002,0 2.793225,-0.52626 0.607223,-0.56674 0.607223,-1.37637 v -10.88952 q 0,-0.76915 -0.607223,-1.29541 -0.607223,-0.56674 -2.793225,-0.56674 -2.186002,0 -2.793224,0.56674 -0.607223,0.52626 -0.607223,1.29541 z"
         style="font-style:normal;font-variant:normal;font-weight:normal;font-stretch:normal;font-size:40.48151779px;line-height:1.25;font-family:Bungee;-inkscape-font-specification:'Bungee, Normal';font-variant-ligatures:normal;font-variant-caps:normal;font-variant-numeric:normal;font-feature-settings:normal;text-align:center;writing-mode:lr-tb;text-anchor:middle;fill:#f3fb01;fill-opacity:1;stroke:none;stroke-width:0.26499999;stroke-miterlimit:4;stroke-dasharray:none;stroke-opacity:0.39591836"
         id="path15290" />
      <path
         d="M 81.289686,217.114 H 60.684594 q -0.769149,0 -1.133483,-0.32385 -0.323852,-0.36433 -0.323852,-1.13348 v -26.23202 q 0,-0.76915 0.323852,-1.093 0.364334,-0.36434 1.133483,-0.36434 h 6.274635 q 0.769149,0 1.093001,0.36434 0.364334,0.32385 0.364334,1.093 V 209.463 h 5.545968 v -6.55801 q 0,-0.76915 0.323852,-1.093 0.364333,-0.36433 1.133482,-0.36433 h 5.86982 q 0.769149,0 1.093001,0.36433 0.364334,0.32385 0.364334,1.093 v 12.75168 q 0,0.76915 -0.364334,1.13348 -0.323852,0.32385 -1.093001,0.32385 z"
         style="font-style:normal;font-variant:normal;font-weight:normal;font-stretch:normal;font-size:40.48151779px;line-height:1.25;font-family:Bungee;-inkscape-font-specification:'Bungee, Normal';font-variant-ligatures:normal;font-variant-caps:normal;font-variant-numeric:normal;font-feature-settings:normal;text-align:center;writing-mode:lr-tb;text-anchor:middle;fill:#f3fb01;fill-opacity:1;stroke:none;stroke-width:0.26499999;stroke-miterlimit:4;stroke-dasharray:none;stroke-opacity:0.39591836"
         id="path15292" />
      <path
         d="m 112.06829,209.463 q 0,1.86215 -0.56674,3.40045 -0.52626,1.49781 -1.94311,2.59081 -1.37637,1.05252 -3.84574,1.65974 -2.4289,0.60723 -6.193677,0.60723 -3.764781,0 -6.234154,-0.60723 -2.469372,-0.60722 -3.886226,-1.65974 -1.376371,-1.093 -1.943112,-2.59081 -0.52626,-1.5383 -0.52626,-3.40045 v -13.8042 q 0,-1.86215 0.52626,-3.35997 0.566741,-1.53829 1.943112,-2.63129 1.416854,-1.09301 3.886226,-1.70023 2.469373,-0.60722 6.234154,-0.60722 3.764777,0 6.193677,0.60722 2.46937,0.60722 3.84574,1.70023 1.41685,1.093 1.94311,2.63129 0.56674,1.49782 0.56674,3.35997 z m -15.949715,-1.45734 q 0,0.80963 0.607223,1.37637 0.607223,0.52626 2.793225,0.52626 2.185997,0 2.793227,-0.52626 0.60722,-0.56674 0.60722,-1.37637 v -10.88952 q 0,-0.76915 -0.60722,-1.29541 -0.60723,-0.56674 -2.793227,-0.56674 -2.186002,0 -2.793225,0.56674 -0.607223,0.52626 -0.607223,1.29541 z"
         style="font-style:normal;font-variant:normal;font-weight:normal;font-stretch:normal;font-size:40.48151779px;line-height:1.25;font-family:Bungee;-inkscape-font-specification:'Bungee, Normal';font-variant-ligatures:normal;font-variant-caps:normal;font-variant-numeric:normal;font-feature-settings:normal;text-align:center;writing-mode:lr-tb;text-anchor:middle;fill:#f3fb01;fill-opacity:1;stroke:none;stroke-width:0.26499999;stroke-miterlimit:4;stroke-dasharray:none;stroke-opacity:0.39591836"
         id="path15294" />
      <path
         d="M 139.44708,217.114 H 126.6954 q -5.06019,0 -7.52956,-2.02407 -2.42889,-2.02408 -2.42889,-6.23415 v -12.63024 q 0,-4.21008 2.42889,-6.23415 2.46937,-2.02408 7.52956,-2.02408 h 10.12038 q 0.76915,0 1.093,0.36434 0.36434,0.32385 0.36434,1.093 v 4.89826 q 0,0.76915 -0.36434,1.13348 -0.32385,0.32385 -1.093,0.32385 h -8.42015 q -1.25493,0 -1.86215,0.52626 -0.60723,0.48578 -0.60723,1.49782 v 9.67508 q 0,1.01204 0.4453,1.49782 0.48578,0.48578 1.41685,0.48578 h 3.92671 v -6.31512 q 0,-0.76915 0.32385,-1.093 0.36434,-0.36433 1.13349,-0.36433 h 6.27463 q 0.76915,0 1.093,0.36433 0.36434,0.32385 0.36434,1.093 v 12.50879 q 0,0.76915 -0.36434,1.13348 -0.32385,0.32385 -1.093,0.32385 z"
         style="font-style:normal;font-variant:normal;font-weight:normal;font-stretch:normal;font-size:40.48151779px;line-height:1.25;font-family:Bungee;-inkscape-font-specification:'Bungee, Normal';font-variant-ligatures:normal;font-variant-caps:normal;font-variant-numeric:normal;font-feature-settings:normal;text-align:center;writing-mode:lr-tb;text-anchor:middle;fill:#f3fb01;fill-opacity:1;stroke:none;stroke-width:0.26499999;stroke-miterlimit:4;stroke-dasharray:none;stroke-opacity:0.39591836"
         id="path15296" />
      <path
         d="m 146.69264,217.114 q -0.76915,0 -1.13349,-0.32385 -0.32385,-0.36433 -0.32385,-1.13348 v -4.8173 q 0,-0.76915 0.32385,-1.093 0.36434,-0.36434 1.13349,-0.36434 h 4.00767 v -13.60179 h -4.00767 q -0.76915,0 -1.13349,-0.32385 -0.32385,-0.36433 -0.32385,-1.13348 v -4.89826 q 0,-0.76915 0.32385,-1.093 0.36434,-0.36434 1.13349,-0.36434 h 17.24512 q 0.76915,0 1.093,0.36434 0.36434,0.32385 0.36434,1.093 v 4.89826 q 0,0.76915 -0.36434,1.13348 -0.32385,0.32385 -1.093,0.32385 h -3.9267 v 13.60179 h 3.9267 q 0.76915,0 1.093,0.36434 0.36434,0.32385 0.36434,1.093 v 4.8173 q 0,0.76915 -0.36434,1.13348 -0.32385,0.32385 -1.093,0.32385 z"
         style="font-style:normal;font-variant:normal;font-weight:normal;font-stretch:normal;font-size:40.48151779px;line-height:1.25;font-family:Bungee;-inkscape-font-specification:'Bungee, Normal';font-variant-ligatures:normal;font-variant-caps:normal;font-variant-numeric:normal;font-feature-settings:normal;text-align:center;writing-mode:lr-tb;text-anchor:middle;fill:#f3fb01;fill-opacity:1;stroke:none;stroke-width:0.26499999;stroke-miterlimit:4;stroke-dasharray:none;stroke-opacity:0.39591836"
         id="path15298" />
      <path
         d="m 183.91413,217.114 h -12.79216 q -0.76915,0 -1.13348,-0.32385 -0.32385,-0.36433 -0.32385,-1.13348 v -4.73634 q 0,-0.76915 0.32385,-1.093 0.36433,-0.36433 1.13348,-0.36433 h 10.88953 q 0.52626,0 0.76915,-0.32385 0.28337,-0.36434 0.28337,-0.85012 0,-0.68818 -0.28337,-1.01203 -0.24289,-0.32386 -0.76915,-0.36434 l -6.07223,-0.85011 q -2.8337,-0.40481 -4.57441,-1.86215 -1.70022,-1.45733 -1.70022,-4.85778 v -4.25056 q 0,-3.44093 2.22648,-5.2626 2.22648,-1.86215 6.15319,-1.86215 h 11.33483 q 0.76915,0 1.093,0.36434 0.36433,0.32385 0.36433,1.093 v 4.8173 q 0,0.76915 -0.36433,1.13348 -0.32385,0.32385 -1.093,0.32385 h -9.4322 q -0.52626,0 -0.80963,0.36434 -0.28337,0.32385 -0.28337,0.85011 0,0.52626 0.28337,0.89059 0.28337,0.36433 0.80963,0.40482 l 6.03175,0.80963 q 2.83371,0.40481 4.57441,1.86215 1.74071,1.45733 1.74071,4.85778 v 4.25056 q 0,3.44093 -2.26697,5.30308 -2.22648,1.82166 -6.11271,1.82166 z"
         style="font-style:normal;font-variant:normal;font-weight:normal;font-stretch:normal;font-size:40.48151779px;line-height:1.25;font-family:Bungee;-inkscape-font-specification:'Bungee, Normal';font-variant-ligatures:normal;font-variant-caps:normal;font-variant-numeric:normal;font-feature-settings:normal;text-align:center;writing-mode:lr-tb;text-anchor:middle;fill:#f3fb01;fill-opacity:1;stroke:none;stroke-width:0.26499999;stroke-miterlimit:4;stroke-dasharray:none;stroke-opacity:0.39591836"
         id="path15300" />
      <path
         d="m 210.09049,217.114 h -6.558 q -0.76915,0 -1.13349,-0.32385 -0.32385,-0.36433 -0.32385,-1.13348 v -19.87643 h -5.95078 q -0.76915,0 -1.13348,-0.32385 -0.32386,-0.36433 -0.32386,-1.13348 v -4.89826 q 0,-0.76915 0.32386,-1.093 0.36433,-0.36434 1.13348,-0.36434 h 21.37424 q 0.76915,0 1.093,0.36434 0.36434,0.32385 0.36434,1.093 v 4.89826 q 0,0.76915 -0.36434,1.13348 -0.32385,0.32385 -1.093,0.32385 h -5.95078 v 19.87643 q 0,0.76915 -0.36434,1.13348 -0.32385,0.32385 -1.093,0.32385 z"
         style="font-style:normal;font-variant:normal;font-weight:normal;font-stretch:normal;font-size:40.48151779px;line-height:1.25;font-family:Bungee;-inkscape-font-specification:'Bungee, Normal';font-variant-ligatures:normal;font-variant-caps:normal;font-variant-numeric:normal;font-feature-settings:normal;text-align:center;writing-mode:lr-tb;text-anchor:middle;fill:#f3fb01;fill-opacity:1;stroke:none;stroke-width:0.26499999;stroke-miterlimit:4;stroke-dasharray:none;stroke-opacity:0.39591836"
         id="path15302" />
      <path
         d="m 236.4136,217.114 h -12.79216 q -0.76915,0 -1.13348,-0.32385 -0.32386,-0.36433 -0.32386,-1.13348 v -4.73634 q 0,-0.76915 0.32386,-1.093 0.36433,-0.36433 1.13348,-0.36433 h 10.88953 q 0.52626,0 0.76915,-0.32385 0.28337,-0.36434 0.28337,-0.85012 0,-0.68818 -0.28337,-1.01203 -0.24289,-0.32386 -0.76915,-0.36434 l -6.07223,-0.85011 q -2.83371,-0.40481 -4.57441,-1.86215 -1.70023,-1.45733 -1.70023,-4.85778 v -4.25056 q 0,-3.44093 2.22649,-5.2626 2.22648,-1.86215 6.15319,-1.86215 h 11.33482 q 0.76915,0 1.093,0.36434 0.36434,0.32385 0.36434,1.093 v 4.8173 q 0,0.76915 -0.36434,1.13348 -0.32385,0.32385 -1.093,0.32385 h -9.43219 q -0.52626,0 -0.80963,0.36434 -0.28337,0.32385 -0.28337,0.85011 0,0.52626 0.28337,0.89059 0.28337,0.36433 0.80963,0.40482 l 6.03175,0.80963 q 2.8337,0.40481 4.57441,1.86215 1.7407,1.45733 1.7407,4.85778 v 4.25056 q 0,3.44093 -2.26696,5.30308 -2.22649,1.82166 -6.11271,1.82166 z"
         style="font-style:normal;font-variant:normal;font-weight:normal;font-stretch:normal;font-size:40.48151779px;line-height:1.25;font-family:Bungee;-inkscape-font-specification:'Bungee, Normal';font-variant-ligatures:normal;font-variant-caps:normal;font-variant-numeric:normal;font-feature-settings:normal;text-align:center;writing-mode:lr-tb;text-anchor:middle;fill:#f3fb01;fill-opacity:1;stroke:none;stroke-width:0.26499999;stroke-miterlimit:4;stroke-dasharray:none;stroke-opacity:0.39591836"
         id="path15304" />
    </g>
    <flowRoot
       transform="scale(0.26458333)"
       style="font-style:normal;font-weight:normal;font-size:96px;line-height:10.25;font-family:sans-serif;letter-spacing:0px;word-spacing:0px;fill:#000000;fill-opacity:1;stroke:none"
       id="flowRoot14701"
       xml:space="preserve"><flowRegion
         id="flowRegion14697"><rect
           y="285.37683"
           x="180"
           height="1922.8572"
           width="600"
           id="rect14695" /></flowRegion><flowPara
         id="flowPara14699"></flowPara></flowRoot>  </g>
  <g
     inkscape:label="Layer 1"
     inkscape:groupmode="layer"
     id="layer1"
     style="display:inline"
     transform="translate(59.713431,-62.417771)">
    <flowRoot
       xml:space="preserve"
       id="flowRoot4518"
       style="font-style:normal;font-weight:normal;font-size:96px;line-height:10.25;font-family:sans-serif;letter-spacing:0px;word-spacing:0px;fill:#000000;fill-opacity:1;stroke:none"
       transform="scale(0.26458333)"><flowRegion
         id="flowRegion4520"><rect
           id="rect4522"
           width="540"
           height="228.57143"
           x="148.57143"
           y="248.23398" /></flowRegion><flowPara
         id="flowPara4524">Meta-analysis</flowPara><flowPara
         id="flowPara4526" /><flowPara
         id="flowPara4528" /></flowRoot>    <g
       aria-label="Meta-analysis
for 
Biologists
"
       transform="matrix(0.99775336,-0.05915016,0.05909122,0.99874857,0,0)"
       style="font-style:normal;font-weight:normal;font-size:38.72711182px;line-height:1.25;font-family:sans-serif;text-align:center;letter-spacing:0px;word-spacing:0px;text-anchor:middle;fill:#e82020;fill-opacity:1;stroke:#f9413c;stroke-width:0.26499999;stroke-miterlimit:4;stroke-dasharray:none;stroke-opacity:0.8933054"
       id="text4532">
      <path
         d="m -49.583409,110.3707 h -5.770339 q -0.735816,0 -1.08436,-0.30982 -0.309816,-0.34854 -0.309816,-1.08436 V 83.881353 q 0,-0.735816 0.309816,-1.045632 0.348544,-0.348544 1.08436,-0.348544 h 6.235065 q 0.619633,0 1.006904,0.271089 0.425999,0.27109 0.774543,0.890724 l 3.48544,6.312519 q 0.193635,0.348544 0.309817,0.503453 0.154908,0.154908 0.387271,0.154908 h 0.348544 q 0.232362,0 0.348544,-0.154908 0.154908,-0.154909 0.348544,-0.503453 l 3.446713,-6.312519 q 0.348544,-0.619634 0.735815,-0.890724 0.425998,-0.271089 1.045632,-0.271089 h 6.273792 q 0.735815,0 1.045632,0.348544 0.348544,0.309816 0.348544,1.045632 v 25.095167 q 0,0.73582 -0.348544,1.08436 -0.309817,0.30982 -1.045632,0.30982 h -5.963975 q -0.735815,0 -1.084359,-0.30982 -0.309817,-0.34854 -0.309817,-1.08436 V 95.344578 l -2.2849,4.221255 q -0.348544,0.658357 -0.851996,0.968177 -0.464726,0.27109 -1.200541,0.27109 h -1.549084 q -0.735815,0 -1.239268,-0.27109 -0.464725,-0.30982 -0.813269,-0.968177 l -2.2849,-4.221255 v 13.631942 q 0,0.73582 -0.348544,1.08436 -0.309817,0.30982 -1.045632,0.30982 z"
         style="font-style:normal;font-variant:normal;font-weight:normal;font-stretch:normal;font-size:38.72711182px;line-height:1.25;font-family:Bungee;-inkscape-font-specification:'Bungee, Normal';font-variant-ligatures:normal;font-variant-caps:normal;font-variant-numeric:normal;font-feature-settings:normal;text-align:center;writing-mode:lr-tb;text-anchor:middle;fill:#e82020;fill-opacity:1;stroke:none;stroke-width:0.26499999;stroke-miterlimit:4;stroke-dasharray:none;stroke-opacity:0.86610879"
         id="path15201"
         inkscape:connector-curvature="0" />
      <path
         d="M -4.4814526,110.3707 H -22.450833 q -0.735815,0 -1.084359,-0.30982 -0.309817,-0.34854 -0.309817,-1.08436 V 83.881353 q 0,-0.735816 0.309817,-1.045632 0.348544,-0.348544 1.084359,-0.348544 h 17.9693804 q 0.7358151,0 1.045632,0.348544 0.348544,0.309816 0.348544,1.045632 v 4.531072 q 0,0.735815 -0.348544,1.084359 -0.3098169,0.309817 -1.045632,0.309817 H -15.170135 v 2.981987 h 7.5517863 q 0.7358151,0 1.045632,0.348544 0.348544,0.309817 0.348544,1.045632 v 4.143801 q 0,0.735815 -0.348544,1.084359 -0.3098169,0.309817 -1.045632,0.309817 h -7.5517863 v 3.330529 h 10.6886824 q 0.7358151,0 1.045632,0.34855 0.348544,0.30981 0.348544,1.04563 v 4.53107 q 0,0.73582 -0.348544,1.08436 -0.3098169,0.30982 -1.045632,0.30982 z"
         style="font-style:normal;font-variant:normal;font-weight:normal;font-stretch:normal;font-size:38.72711182px;line-height:1.25;font-family:Bungee;-inkscape-font-specification:'Bungee, Normal';font-variant-ligatures:normal;font-variant-caps:normal;font-variant-numeric:normal;font-feature-settings:normal;text-align:center;writing-mode:lr-tb;text-anchor:middle;fill:#e82020;fill-opacity:1;stroke:none;stroke-width:0.26499999;stroke-miterlimit:4;stroke-dasharray:none;stroke-opacity:0.86610879"
         id="path15203"
         inkscape:connector-curvature="0" />
      <path
         d="M 14.661237,110.3707 H 8.3874448 q -0.7358152,0 -1.0843592,-0.30982 -0.3098169,-0.34854 -0.3098169,-1.08436 V 89.961509 H 1.3003833 q -0.73581511,0 -1.08435912,-0.309817 -0.3098169,-0.348544 -0.3098169,-1.084359 v -4.68598 q 0,-0.735816 0.3098169,-1.045632 0.34854401,-0.348544 1.08435912,-0.348544 H 21.748298 q 0.735815,0 1.045632,0.348544 0.348544,0.309816 0.348544,1.045632 v 4.68598 q 0,0.735815 -0.348544,1.084359 -0.309817,0.309817 -1.045632,0.309817 h -5.692885 v 19.015011 q 0,0.73582 -0.348544,1.08436 -0.309817,0.30982 -1.045632,0.30982 z"
         style="font-style:normal;font-variant:normal;font-weight:normal;font-stretch:normal;font-size:38.72711182px;line-height:1.25;font-family:Bungee;-inkscape-font-specification:'Bungee, Normal';font-variant-ligatures:normal;font-variant-caps:normal;font-variant-numeric:normal;font-feature-settings:normal;text-align:center;writing-mode:lr-tb;text-anchor:middle;fill:#e82020;fill-opacity:1;stroke:none;stroke-width:0.26499999;stroke-miterlimit:4;stroke-dasharray:none;stroke-opacity:0.86610879"
         id="path15205"
         inkscape:connector-curvature="0" />
      <path
         d="m 35.503681,90.61987 -1.820174,5.886521 h 6.080156 L 37.943489,90.61987 q -0.154908,-0.348544 -0.348544,-0.503452 -0.154908,-0.154909 -0.387271,-0.154909 h -0.968178 q -0.232363,0 -0.425998,0.154909 -0.154909,0.154908 -0.309817,0.503452 z m -2.207445,18.35665 q 0,0.73582 -0.348544,1.08436 -0.309817,0.30982 -1.045632,0.30982 h -5.692886 q -0.735815,0 -1.084359,-0.30982 -0.309817,-0.34854 -0.309817,-1.08436 V 98.752563 q 0,-1.161813 0.348544,-2.67217 0.387271,-1.510358 1.161814,-3.524167 l 3.369258,-8.791055 q 0.232363,-0.658361 0.697088,-0.968178 0.503453,-0.309816 1.277995,-0.309816 H 42.08729 q 0.735815,0 1.200541,0.309816 0.503452,0.309817 0.735815,0.968178 l 3.369258,8.791055 q 0.774543,2.013809 1.123087,3.524167 0.387271,1.510357 0.387271,2.67217 v 10.223957 q 0,0.73582 -0.348544,1.08436 -0.309817,0.30982 -1.045632,0.30982 h -5.847794 q -0.774542,0 -1.161814,-0.30982 -0.348544,-0.34854 -0.348544,-1.08436 v -5.42179 h -6.854698 z"
         style="font-style:normal;font-variant:normal;font-weight:normal;font-stretch:normal;font-size:38.72711182px;line-height:1.25;font-family:Bungee;-inkscape-font-specification:'Bungee, Normal';font-variant-ligatures:normal;font-variant-caps:normal;font-variant-numeric:normal;font-feature-settings:normal;text-align:center;writing-mode:lr-tb;text-anchor:middle;fill:#e82020;fill-opacity:1;stroke:none;stroke-width:0.26499999;stroke-miterlimit:4;stroke-dasharray:none;stroke-opacity:0.86610879"
         id="path15207"
         inkscape:connector-curvature="0" />
      <path
         d="m 53.955943,100.41783 q -0.735815,0 -1.084359,-0.30982 -0.309817,-0.348542 -0.309817,-1.084357 V 93.83422 q 0,-0.735815 0.309817,-1.045632 0.348544,-0.348544 1.084359,-0.348544 h 10.378866 q 0.735815,0 1.045632,0.348544 0.348544,0.309817 0.348544,1.045632 v 5.189433 q 0,0.735815 -0.348544,1.084357 -0.309817,0.30982 -1.045632,0.30982 z"
         style="font-style:normal;font-variant:normal;font-weight:normal;font-stretch:normal;font-size:38.72711182px;line-height:1.25;font-family:Bungee;-inkscape-font-specification:'Bungee, Normal';font-variant-ligatures:normal;font-variant-caps:normal;font-variant-numeric:normal;font-feature-settings:normal;text-align:center;writing-mode:lr-tb;text-anchor:middle;fill:#e82020;fill-opacity:1;stroke:none;stroke-width:0.26499999;stroke-miterlimit:4;stroke-dasharray:none;stroke-opacity:0.86610879"
         id="path15209"
         inkscape:connector-curvature="0" />
      <path
         d="m 80.054989,90.61987 -1.820175,5.886521 h 6.080157 L 82.494797,90.61987 q -0.154909,-0.348544 -0.348544,-0.503452 -0.154909,-0.154909 -0.387271,-0.154909 h -0.968178 q -0.232363,0 -0.425998,0.154909 -0.154909,0.154908 -0.309817,0.503452 z m -2.207446,18.35665 q 0,0.73582 -0.348544,1.08436 -0.309817,0.30982 -1.045632,0.30982 h -5.692885 q -0.735815,0 -1.084359,-0.30982 -0.309817,-0.34854 -0.309817,-1.08436 V 98.752563 q 0,-1.161813 0.348544,-2.67217 0.387271,-1.510358 1.161813,-3.524167 l 3.369259,-8.791055 q 0.232363,-0.658361 0.697088,-0.968178 0.503452,-0.309816 1.277995,-0.309816 h 10.417593 q 0.735815,0 1.20054,0.309816 0.503453,0.309817 0.735815,0.968178 l 3.369259,8.791055 q 0.774542,2.013809 1.123086,3.524167 0.387271,1.510357 0.387271,2.67217 v 10.223957 q 0,0.73582 -0.348544,1.08436 -0.309816,0.30982 -1.045632,0.30982 h -5.847794 q -0.774542,0 -1.161813,-0.30982 -0.348544,-0.34854 -0.348544,-1.08436 v -5.42179 h -6.854699 z"
         style="font-style:normal;font-variant:normal;font-weight:normal;font-stretch:normal;font-size:38.72711182px;line-height:1.25;font-family:Bungee;-inkscape-font-specification:'Bungee, Normal';font-variant-ligatures:normal;font-variant-caps:normal;font-variant-numeric:normal;font-feature-settings:normal;text-align:center;writing-mode:lr-tb;text-anchor:middle;fill:#e82020;fill-opacity:1;stroke:none;stroke-width:0.26499999;stroke-miterlimit:4;stroke-dasharray:none;stroke-opacity:0.86610879"
         id="path15211"
         inkscape:connector-curvature="0" />
      <path
         d="m 105.4394,110.3707 h -5.809063 q -0.735816,0 -1.08436,-0.30982 -0.309816,-0.34854 -0.309816,-1.08436 V 83.881353 q 0,-0.735816 0.309816,-1.045632 0.348544,-0.348544 1.08436,-0.348544 h 4.027623 q 0.73581,0 1.23926,0.232362 0.54218,0.232363 1.04564,0.81327 l 7.51306,8.597418 v -8.248874 q 0,-0.735816 0.30981,-1.045632 0.34855,-0.348544 1.08436,-0.348544 h 5.80907 q 0.73581,0 1.04563,0.348544 0.34854,0.309816 0.34854,1.045632 v 25.095167 q 0,0.73582 -0.34854,1.08436 -0.30982,0.30982 -1.04563,0.30982 h -5.80907 q -0.73581,0 -1.08436,-0.30982 -0.30981,-0.34854 -0.30981,-1.08436 v -4.76343 l -6.62234,-8.016516 v 12.779946 q 0,0.73582 -0.34854,1.08436 -0.30982,0.30982 -1.04564,0.30982 z"
         style="font-style:normal;font-variant:normal;font-weight:normal;font-stretch:normal;font-size:38.72711182px;line-height:1.25;font-family:Bungee;-inkscape-font-specification:'Bungee, Normal';font-variant-ligatures:normal;font-variant-caps:normal;font-variant-numeric:normal;font-feature-settings:normal;text-align:center;writing-mode:lr-tb;text-anchor:middle;fill:#e82020;fill-opacity:1;stroke:none;stroke-width:0.26499999;stroke-miterlimit:4;stroke-dasharray:none;stroke-opacity:0.86610879"
         id="path15213"
         inkscape:connector-curvature="0" />
      <path
         d="m 137.54055,90.61987 -1.82018,5.886521 h 6.08016 l -1.82018,-5.886521 q -0.1549,-0.348544 -0.34854,-0.503452 -0.15491,-0.154909 -0.38727,-0.154909 h -0.96818 q -0.23236,0 -0.426,0.154909 -0.15491,0.154908 -0.30981,0.503452 z m -2.20745,18.35665 q 0,0.73582 -0.34854,1.08436 -0.30982,0.30982 -1.04564,0.30982 h -5.69288 q -0.73582,0 -1.08436,-0.30982 -0.30982,-0.34854 -0.30982,-1.08436 V 98.752563 q 0,-1.161813 0.34855,-2.67217 0.38727,-1.510358 1.16181,-3.524167 l 3.36926,-8.791055 q 0.23236,-0.658361 0.69709,-0.968178 0.50345,-0.309816 1.27799,-0.309816 h 10.4176 q 0.73581,0 1.20054,0.309816 0.50345,0.309817 0.73581,0.968178 l 3.36926,8.791055 q 0.77454,2.013809 1.12309,3.524167 0.38727,1.510357 0.38727,2.67217 v 10.223957 q 0,0.73582 -0.34855,1.08436 -0.30981,0.30982 -1.04563,0.30982 h -5.84779 q -0.77455,0 -1.16182,-0.30982 -0.34854,-0.34854 -0.34854,-1.08436 v -5.42179 h -6.8547 z"
         style="font-style:normal;font-variant:normal;font-weight:normal;font-stretch:normal;font-size:38.72711182px;line-height:1.25;font-family:Bungee;-inkscape-font-specification:'Bungee, Normal';font-variant-ligatures:normal;font-variant-caps:normal;font-variant-numeric:normal;font-feature-settings:normal;text-align:center;writing-mode:lr-tb;text-anchor:middle;fill:#e82020;fill-opacity:1;stroke:none;stroke-width:0.26499999;stroke-miterlimit:4;stroke-dasharray:none;stroke-opacity:0.86610879"
         id="path15215"
         inkscape:connector-curvature="0" />
      <path
         d="m 176.82799,110.3707 h -19.7121 q -0.73582,0 -1.08436,-0.30982 -0.30982,-0.34854 -0.30982,-1.08436 V 83.881353 q 0,-0.735816 0.30982,-1.045632 0.34854,-0.348544 1.08436,-0.348544 h 6.0027 q 0.73581,0 1.04563,0.348544 0.34854,0.309816 0.34854,1.045632 v 19.169917 h 5.30562 v -6.273789 q 0,-0.735815 0.30982,-1.045632 0.34854,-0.348544 1.08436,-0.348544 h 5.61543 q 0.73581,0 1.04563,0.348544 0.34854,0.309817 0.34854,1.045632 v 12.199039 q 0,0.73582 -0.34854,1.08436 -0.30982,0.30982 -1.04563,0.30982 z"
         style="font-style:normal;font-variant:normal;font-weight:normal;font-stretch:normal;font-size:38.72711182px;line-height:1.25;font-family:Bungee;-inkscape-font-specification:'Bungee, Normal';font-variant-ligatures:normal;font-variant-caps:normal;font-variant-numeric:normal;font-feature-settings:normal;text-align:center;writing-mode:lr-tb;text-anchor:middle;fill:#e82020;fill-opacity:1;stroke:none;stroke-width:0.26499999;stroke-miterlimit:4;stroke-dasharray:none;stroke-opacity:0.86610879"
         id="path15217"
         inkscape:connector-curvature="0" />
      <path
         d="m 194.81795,110.3707 h -6.27379 q -0.73581,0 -1.08436,-0.30982 -0.30982,-0.34854 -0.30982,-1.08436 v -4.95707 l -5.92524,-7.939057 q -0.89073,-1.200541 -1.20054,-2.091264 -0.27109,-0.890724 -0.27109,-2.672171 v -7.435605 q 0,-0.735816 0.30981,-1.045632 0.34855,-0.348544 1.08436,-0.348544 h 5.96398 q 0.73581,0 1.04563,0.348544 0.34854,0.309816 0.34854,1.045632 v 6.351246 q 0,0.387271 0.0387,0.813269 0.0387,0.425998 0.30982,0.81327 l 1.78144,2.788352 q 0.19364,0.348544 0.38728,0.503452 0.23236,0.154909 0.54217,0.154909 h 0.38728 q 0.30981,0 0.50345,-0.154909 0.23236,-0.154908 0.426,-0.503452 l 1.78144,-2.788352 q 0.27109,-0.387272 0.30982,-0.81327 0.0387,-0.425998 0.0387,-0.813269 v -6.351246 q 0,-0.735816 0.30981,-1.045632 0.34855,-0.348544 1.08436,-0.348544 h 5.77034 q 0.73582,0 1.04564,0.348544 0.34854,0.309816 0.34854,1.045632 v 7.435605 q 0,1.781447 -0.30982,2.672171 -0.30981,0.890723 -1.16181,2.091264 l -5.88652,7.977787 v 4.91834 q 0,0.73582 -0.34855,1.08436 -0.30981,0.30982 -1.04563,0.30982 z"
         style="font-style:normal;font-variant:normal;font-weight:normal;font-stretch:normal;font-size:38.72711182px;line-height:1.25;font-family:Bungee;-inkscape-font-specification:'Bungee, Normal';font-variant-ligatures:normal;font-variant-caps:normal;font-variant-numeric:normal;font-feature-settings:normal;text-align:center;writing-mode:lr-tb;text-anchor:middle;fill:#e82020;fill-opacity:1;stroke:none;stroke-width:0.26499999;stroke-miterlimit:4;stroke-dasharray:none;stroke-opacity:0.86610879"
         id="path15219"
         inkscape:connector-curvature="0" />
      <path
         d="m 220.92305,110.3707 h -12.23777 q -0.73582,0 -1.08436,-0.30982 -0.30982,-0.34854 -0.30982,-1.08436 v -4.53107 q 0,-0.73582 0.30982,-1.04563 0.34854,-0.34855 1.08436,-0.34855 h 10.41759 q 0.50345,0 0.73582,-0.30981 0.27109,-0.34855 0.27109,-0.81327 0,-0.65836 -0.27109,-0.96818 -0.23237,-0.30982 -0.73582,-0.34855 l -5.80907,-0.813265 q -2.71089,-0.387271 -4.37616,-1.781447 -1.62654,-1.394176 -1.62654,-4.647253 v -4.066347 q 0,-3.291804 2.12999,-5.034524 2.12999,-1.781447 5.88652,-1.781447 h 10.8436 q 0.73581,0 1.04563,0.348544 0.34854,0.309816 0.34854,1.045632 v 4.608526 q 0,0.735815 -0.34854,1.084359 -0.30982,0.309817 -1.04563,0.309817 h -9.02342 q -0.50345,0 -0.77454,0.348544 -0.27109,0.309817 -0.27109,0.813269 0,0.503453 0.27109,0.851997 0.27109,0.348544 0.77454,0.387271 l 5.77034,0.774542 q 2.7109,0.387271 4.37616,1.781447 1.66527,1.394176 1.66527,4.647254 v 4.066351 q 0,3.2918 -2.16872,5.07325 -2.12999,1.74272 -5.84779,1.74272 z"
         style="font-style:normal;font-variant:normal;font-weight:normal;font-stretch:normal;font-size:38.72711182px;line-height:1.25;font-family:Bungee;-inkscape-font-specification:'Bungee, Normal';font-variant-ligatures:normal;font-variant-caps:normal;font-variant-numeric:normal;font-feature-settings:normal;text-align:center;writing-mode:lr-tb;text-anchor:middle;fill:#e82020;fill-opacity:1;stroke:none;stroke-width:0.26499999;stroke-miterlimit:4;stroke-dasharray:none;stroke-opacity:0.86610879"
         id="path15221"
         inkscape:connector-curvature="0" />
      <path
         d="m 233.95048,110.3707 q -0.73582,0 -1.08436,-0.30982 -0.30982,-0.34854 -0.30982,-1.08436 v -4.60853 q 0,-0.73581 0.30982,-1.04563 0.34854,-0.34854 1.08436,-0.34854 h 3.83398 V 89.961509 h -3.83398 q -0.73582,0 -1.08436,-0.309817 -0.30982,-0.348544 -0.30982,-1.084359 v -4.68598 q 0,-0.735816 0.30982,-1.045632 0.34854,-0.348544 1.08436,-0.348544 h 16.49775 q 0.73581,0 1.04563,0.348544 0.34854,0.309816 0.34854,1.045632 v 4.68598 q 0,0.735815 -0.34854,1.084359 -0.30982,0.309817 -1.04563,0.309817 h -3.75653 v 13.012311 h 3.75653 q 0.73581,0 1.04563,0.34854 0.34854,0.30982 0.34854,1.04563 v 4.60853 q 0,0.73582 -0.34854,1.08436 -0.30982,0.30982 -1.04563,0.30982 z"
         style="font-style:normal;font-variant:normal;font-weight:normal;font-stretch:normal;font-size:38.72711182px;line-height:1.25;font-family:Bungee;-inkscape-font-specification:'Bungee, Normal';font-variant-ligatures:normal;font-variant-caps:normal;font-variant-numeric:normal;font-feature-settings:normal;text-align:center;writing-mode:lr-tb;text-anchor:middle;fill:#e82020;fill-opacity:1;stroke:none;stroke-width:0.26499999;stroke-miterlimit:4;stroke-dasharray:none;stroke-opacity:0.86610879"
         id="path15223"
         inkscape:connector-curvature="0" />
      <path
         d="m 269.55885,110.3707 h -12.23777 q -0.73581,0 -1.08436,-0.30982 -0.30981,-0.34854 -0.30981,-1.08436 v -4.53107 q 0,-0.73582 0.30981,-1.04563 0.34855,-0.34855 1.08436,-0.34855 h 10.41759 q 0.50346,0 0.73582,-0.30981 0.27109,-0.34855 0.27109,-0.81327 0,-0.65836 -0.27109,-0.96818 -0.23236,-0.30982 -0.73582,-0.34855 l -5.80906,-0.813265 q -2.7109,-0.387271 -4.37617,-1.781447 -1.62653,-1.394176 -1.62653,-4.647253 v -4.066347 q 0,-3.291804 2.12999,-5.034524 2.12999,-1.781447 5.88652,-1.781447 h 10.84359 q 0.73581,0 1.04563,0.348544 0.34854,0.309816 0.34854,1.045632 v 4.608526 q 0,0.735815 -0.34854,1.084359 -0.30982,0.309817 -1.04563,0.309817 h -9.02342 q -0.50345,0 -0.77454,0.348544 -0.27109,0.309817 -0.27109,0.813269 0,0.503453 0.27109,0.851997 0.27109,0.348544 0.77454,0.387271 l 5.77034,0.774542 q 2.7109,0.387271 4.37616,1.781447 1.66527,1.394176 1.66527,4.647254 v 4.066351 q 0,3.2918 -2.16872,5.07325 -2.12999,1.74272 -5.84779,1.74272 z"
         style="font-style:normal;font-variant:normal;font-weight:normal;font-stretch:normal;font-size:38.72711182px;line-height:1.25;font-family:Bungee;-inkscape-font-specification:'Bungee, Normal';font-variant-ligatures:normal;font-variant-caps:normal;font-variant-numeric:normal;font-feature-settings:normal;text-align:center;writing-mode:lr-tb;text-anchor:middle;fill:#e82020;fill-opacity:1;stroke:none;stroke-width:0.26499999;stroke-miterlimit:4;stroke-dasharray:none;stroke-opacity:0.86610879"
         id="path15225"
         inkscape:connector-curvature="0" />
      <path
         d="m 96.861042,120.73675 q 0.503452,-0.1549 1.123086,-0.1549 0.658361,-0.0387 1.239268,0.27109 0.619634,0.27109 1.045634,0.92945 0.426,0.61963 0.50345,1.78144 0.11618,2.36236 -0.46472,5.07326 -0.542184,2.67217 -1.626544,5.4218 -1.084359,2.7109 -2.594717,5.30561 -1.510358,2.59472 -3.330533,4.76344 -1.781448,2.12999 -3.795258,3.67908 -2.013811,1.51035 -4.066349,2.09126 l -0.425998,0.96818 q 0.464725,0.61963 0.851997,1.47163 0.387271,0.81327 0.697088,1.78145 2.362355,-0.27109 4.802164,-0.89073 2.478536,-0.61963 4.531074,-1.31672 2.052537,-0.73581 3.407987,-1.39417 1.394179,-0.65837 1.587809,-1.00691 0.23237,-0.38727 0.61964,-0.46473 0.426,-0.0774 0.77454,0.11619 0.34854,0.1549 0.54218,0.54218 0.19363,0.38727 -0.0387,0.96817 -0.15491,0.34855 -0.85199,0.89073 -0.69709,0.50345 -1.82018,1.08436 -1.123086,0.5809 -2.594717,1.20054 -1.471631,0.58091 -3.175625,1.12309 -1.703993,0.54217 -3.524168,0.96817 -1.820175,0.38727 -3.64035,0.58091 0.309817,1.47163 0.425998,2.78835 0.116182,1.31673 0.07746,2.13 -0.116182,1.97508 -0.735816,3.87271 -0.580907,1.93635 -1.510358,3.60162 -0.929451,1.66527 -2.129992,3.02072 -1.200541,1.35545 -2.517263,2.20744 -1.355449,0.852 -2.749626,1.12309 -1.432904,0.27109 -2.788353,-0.19364 -0.348544,-0.11618 -0.774543,-0.34854 -0.425998,-0.19364 -0.774542,-0.54218 -0.348544,-0.30982 -0.54218,-0.81327 -0.193636,-0.46473 -0.07745,-1.16181 0.07745,-0.46473 0.580907,-2.05254 0.464725,-1.54909 1.277995,-3.87271 0.813269,-2.32363 1.897629,-5.26689 1.08436,-2.94326 2.362355,-6.23507 -0.735816,-0.89072 -0.658361,-2.01381 0.116181,-1.62654 0.968178,-2.40108 0.813269,-0.77455 1.820175,-0.96818 1.355449,-3.33053 2.788353,-6.66107 1.471631,-3.36926 2.904534,-6.46743 1.471631,-3.09817 2.904535,-5.80907 1.432904,-2.7109 2.749626,-4.80216 1.355449,-2.09127 2.55599,-3.36926 1.200541,-1.278 2.16872,-1.54909 z m -0.890724,4.25999 q -0.619634,1.27799 -1.665267,3.56289 -1.045632,2.2849 -2.323627,5.18944 -1.277996,2.90453 -2.749627,6.27379 -1.47163,3.33054 -2.981988,6.77725 1.820175,-1.20054 3.330533,-2.90453 1.549085,-1.704 2.749626,-3.67908 1.239268,-1.97508 2.168719,-4.06635 0.929451,-2.12999 1.549085,-4.10507 0.619634,-2.01381 0.929451,-3.75654 0.348544,-1.74272 0.425998,-2.98198 0.07746,-1.54909 -0.387271,-1.58782 -0.425998,-0.0774 -1.045632,1.278 z M 83.345274,156.6368 q -0.697088,0 -1.316722,-0.11618 -1.200541,2.82708 -2.207446,5.30562 -1.045633,2.51726 -1.820175,4.41489 -0.774543,1.89763 -1.200541,3.05944 -0.464726,1.20054 -0.464726,1.43291 -0.03873,1.20054 0.464726,1.47163 0.464725,0.27109 1.239268,-0.15491 0.735815,-0.426 1.665266,-1.51036 0.929451,-1.04563 1.703994,-2.51726 0.813269,-1.47163 1.394176,-3.29181 0.580907,-1.78145 0.697089,-3.75653 0.03873,-0.38727 0.03873,-1.62654 0,-1.23927 -0.03873,-2.7109 z m -0.309817,-2.43981 q 0.116182,0.0387 0.309817,0.0387 0,-0.15491 -0.03873,-0.30982 0,-0.15491 0,-0.30981 z"
         style="font-style:normal;font-variant:normal;font-weight:normal;font-stretch:normal;font-size:38.72712708px;font-family:'Bite Chocolate';-inkscape-font-specification:'Bite Chocolate, Normal';font-variant-ligatures:normal;font-variant-caps:normal;font-variant-numeric:normal;font-feature-settings:normal;text-align:center;writing-mode:lr-tb;text-anchor:middle;fill:#e82020;fill-opacity:1;stroke:none;stroke-width:0.26499999;stroke-opacity:0.86610879"
         id="path15227"
         inkscape:connector-curvature="0" />
      <path
         d="m 95.923724,156.71426 q -0.464726,-2.05254 -0.193636,-3.75654 0.232363,-1.74272 0.968178,-3.13689 0.735816,-1.39418 1.820175,-2.40108 1.123087,-1.04564 2.362359,-1.704 0.34854,-0.852 0.92945,-1.62654 0.5809,-0.81327 1.35545,-1.39417 0.77454,-0.61964 1.66526,-1.00691 0.89073,-0.38727 1.85891,-0.46473 1.82017,-0.1549 3.13689,0.34855 1.31672,0.46472 2.16872,1.35545 0.89073,0.852 1.35545,2.01381 0.50345,1.12309 0.69709,2.24617 0.27109,1.54909 0,3.21435 -0.27109,1.66527 -0.92945,3.29181 1.97508,-0.46473 3.60162,-1.39418 1.66527,-0.96817 2.94326,-2.01381 1.31672,-1.08436 2.2849,-2.05254 1.00691,-1.0069 1.66527,-1.58781 0.34854,-0.27109 0.69709,-0.19363 0.38727,0.0387 0.65836,0.30981 0.30982,0.23237 0.38727,0.65837 0.11618,0.42599 -0.0774,0.81326 -0.50346,1.00691 -1.74272,2.47854 -1.23927,1.47163 -3.09817,2.82708 -1.82018,1.35545 -4.18253,2.40108 -2.36236,1.00691 -5.11199,1.16182 -1.58781,2.09126 -3.67907,3.44671 -2.05254,1.31672 -4.29871,1.278 -2.09127,-0.0387 -3.446718,-0.65836 -1.316722,-0.61964 -2.129992,-1.43291 -0.81327,-0.81327 -1.161814,-1.62654 -0.387271,-0.85199 -0.503452,-1.39417 z m 10.843596,-3.17563 q 1.54908,0.38727 2.98199,0.46473 0.69709,-1.47163 1.0069,-3.09817 0.34855,-1.62654 0.19364,-3.17563 -0.0775,-1.0069 -0.30982,-1.8589 -0.23236,-0.89072 -0.77454,-1.51036 -0.50345,-0.65836 -1.39418,-0.96818 -0.85199,-0.30981 -2.16872,-0.1549 -0.69708,0.11618 -1.23926,0.54218 -0.54218,0.38727 -0.92946,0.92945 1.16182,-0.15491 2.20745,0.0774 0.38727,0.0774 0.77454,0.69709 0.38727,0.61963 0.61964,1.35545 0.27109,0.69709 0.30981,1.27799 0.0387,0.54218 -0.19363,0.50346 -2.67217,-0.34855 -4.45362,0.30981 0,0.58091 0.0774,1.278 0.0775,0.69709 0.38727,1.35545 0.30982,0.61963 0.96818,1.16181 0.69709,0.50345 1.93636,0.81327 z m -0.34854,3.02072 q -1.51036,-0.426 -2.556,-0.96818 -1.0069,-0.58091 -1.66526,-1.23927 -0.65836,-0.65836 -1.00691,-1.39418 -0.30981,-0.77454 -0.46472,-1.58781 -0.426,0.89073 -0.58091,1.97509 -0.11618,1.04563 0.0387,2.20744 0.23236,1.74272 1.12308,2.55599 0.92946,0.81327 2.2849,0.77454 1.20055,0 2.24618,-0.54217 1.08436,-0.54218 1.97508,-1.43291 -0.69709,-0.11618 -1.39417,-0.34854 z"
         style="font-style:normal;font-variant:normal;font-weight:normal;font-stretch:normal;font-size:38.72712708px;font-family:'Bite Chocolate';-inkscape-font-specification:'Bite Chocolate, Normal';font-variant-ligatures:normal;font-variant-caps:normal;font-variant-numeric:normal;font-feature-settings:normal;text-align:center;writing-mode:lr-tb;text-anchor:middle;fill:#e82020;fill-opacity:1;stroke:none;stroke-width:0.26499999;stroke-opacity:0.86610879"
         id="path15229"
         inkscape:connector-curvature="0" />
      <path
         d="m 123.17915,138.58996 q 2.16872,-0.30982 3.21435,0.81327 1.04563,1.12309 0.852,3.33053 -0.0775,1.23927 -0.426,2.2849 -0.30982,1.00691 -0.77454,1.78145 0.85199,-0.23236 1.66526,-0.54218 0.852,-0.30982 1.54909,-0.58091 0.69708,-0.27109 1.20054,-0.46472 0.50345,-0.23236 0.73581,-0.27109 0.426,-0.0775 0.852,0.426 0.426,0.50345 0.73582,1.20054 0.30981,0.65836 0.42599,1.31672 0.15491,0.61963 0.0387,0.77454 -1.8589,2.59472 -2.86581,4.53108 -0.96817,1.89763 -1.35545,3.25308 -0.38727,1.35545 -0.30981,2.24617 0.0774,0.852 0.38727,1.35545 0.34854,0.50345 0.77454,0.69709 0.46473,0.19363 0.81327,0.19363 1.20054,0.0387 2.47854,-0.81327 1.31672,-0.85199 2.59471,-2.16872 1.278,-1.31672 2.43981,-2.90453 1.16182,-1.58781 2.05254,-3.02072 0.89072,-1.47163 1.47163,-2.59471 0.58091,-1.12309 0.69709,-1.51036 0.11618,-0.38727 0.38727,-0.54218 0.30982,-0.15491 0.61964,-0.0775 0.30981,0.0387 0.5809,0.30982 0.30982,0.27109 0.426,0.73582 0.11618,0.42599 -0.50345,1.82017 -0.61964,1.39418 -1.78145,3.25308 -1.12309,1.82017 -2.7109,3.83399 -1.54908,1.97508 -3.36926,3.56289 -1.78145,1.58781 -3.7178,2.51726 -1.93636,0.96818 -3.83399,0.65837 -1.97508,-0.30982 -3.1369,-1.66527 -1.12308,-1.31672 -1.31672,-3.25308 -0.19363,-1.97508 0.61964,-4.33744 0.81327,-2.36235 2.78835,-4.68598 0.0774,-0.11618 0.11618,-0.27109 0.0387,-0.19364 -0.0387,-0.30982 -0.0774,-0.15491 -0.27109,-0.15491 -0.15491,-0.0387 -0.50345,0.23237 -0.23236,0.19363 -0.92945,0.426 -0.69709,0.23236 -1.58781,0.30981 -0.89073,0.0775 -1.89763,-0.0387 -0.96818,-0.11619 -1.82018,-0.65837 -0.81327,-0.54218 -1.39417,-1.58781 -0.58091,-1.04563 -0.65836,-2.74962 -0.0387,-0.73582 0.23236,-1.82018 0.23236,-1.08436 0.81327,-2.09126 0.5809,-1.00691 1.47163,-1.78145 0.92945,-0.77454 2.16872,-0.96818 z m -1.74272,7.97779 q 0.19363,0.46472 0.77454,0.65836 0.46472,-0.65836 0.92945,-1.70399 0.50345,-1.04564 0.69709,-2.51727 0.19363,-1.23927 -0.30982,-1.62654 -0.46472,-0.38727 -1.31672,0.77455 -0.58091,0.81327 -0.852,1.51035 -0.23236,0.69709 -0.27109,1.278 0,0.54218 0.11618,0.96818 0.11619,0.38727 0.23237,0.65836 z"
         style="font-style:normal;font-variant:normal;font-weight:normal;font-stretch:normal;font-size:38.72712708px;font-family:'Bite Chocolate';-inkscape-font-specification:'Bite Chocolate, Normal';font-variant-ligatures:normal;font-variant-caps:normal;font-variant-numeric:normal;font-feature-settings:normal;text-align:center;writing-mode:lr-tb;text-anchor:middle;fill:#e82020;fill-opacity:1;stroke:none;stroke-width:0.26499999;stroke-opacity:0.86610879"
         id="path15231"
         inkscape:connector-curvature="0" />
      <path
         d="M -2.0958007,214.26275 H -16.967012 q -0.735815,0 -1.084359,-0.30982 -0.309817,-0.34854 -0.309817,-1.08435 v -25.09517 q 0,-0.73582 0.309817,-1.04563 0.348544,-0.34855 1.084359,-0.34855 h 12.353949 q 3.79525697,0 5.6154312,1.47163 1.8201743,1.4329 1.8201743,4.45362 v 1.8589 q 0,1.62654 -0.5809067,2.67217 -0.5421796,1.00691 -1.70399291,1.51036 2.47853511,0.23236 3.67907561,1.70399 1.2005405,1.47163 1.2005405,4.29871 v 3.5629 q 0,3.25307 -1.8589014,4.80216 -1.8201742,1.54908 -5.6541583,1.54908 z m -7.5517868,-21.29991 v 4.18253 h 3.2918045 q 0.7358151,0 1.0843591,-0.38727 0.3872711,-0.38727 0.3872711,-1.16182 v -1.08436 q 0,-0.77454 -0.3872711,-1.16181 -0.348544,-0.38727 -1.0843591,-0.38727 z m 0,10.1465 v 4.5698 h 5.0345245 q 0.7358151,0 1.0843591,-0.38727 0.3872712,-0.38727 0.3872712,-1.16181 v -1.51036 q 0,-0.77454 -0.3872712,-1.12309 -0.348544,-0.38727 -1.0843591,-0.38727 z"
         style="font-style:normal;font-variant:normal;font-weight:normal;font-stretch:normal;font-size:38.72711182px;line-height:1.25;font-family:Bungee;-inkscape-font-specification:'Bungee, Normal';font-variant-ligatures:normal;font-variant-caps:normal;font-variant-numeric:normal;font-feature-settings:normal;text-align:center;writing-mode:lr-tb;text-anchor:middle;fill:#e82020;fill-opacity:1;stroke:none;stroke-width:0.26499999;stroke-miterlimit:4;stroke-dasharray:none;stroke-opacity:0.86610879"
         id="path15233"
         inkscape:connector-curvature="0" />
      <path
         d="m 10.475383,214.26275 q -0.7358147,0 -1.0843587,-0.30982 -0.3098169,-0.34854 -0.3098169,-1.08435 v -4.60853 q 0,-0.73582 0.3098169,-1.04563 0.348544,-0.34855 1.0843587,-0.34855 h 3.833985 v -13.01231 h -3.833985 q -0.7358147,0 -1.0843587,-0.30981 -0.3098169,-0.34855 -0.3098169,-1.08436 v -4.68598 q 0,-0.73582 0.3098169,-1.04563 0.348544,-0.34855 1.0843587,-0.34855 h 16.49775 q 0.735815,0 1.045632,0.34855 0.348544,0.30981 0.348544,1.04563 v 4.68598 q 0,0.73581 -0.348544,1.08436 -0.309817,0.30981 -1.045632,0.30981 h -3.75653 v 13.01231 h 3.75653 q 0.735815,0 1.045632,0.34855 0.348544,0.30981 0.348544,1.04563 v 4.60853 q 0,0.73581 -0.348544,1.08435 -0.309817,0.30982 -1.045632,0.30982 z"
         style="font-style:normal;font-variant:normal;font-weight:normal;font-stretch:normal;font-size:38.72711182px;line-height:1.25;font-family:Bungee;-inkscape-font-specification:'Bungee, Normal';font-variant-ligatures:normal;font-variant-caps:normal;font-variant-numeric:normal;font-feature-settings:normal;text-align:center;writing-mode:lr-tb;text-anchor:middle;fill:#e82020;fill-opacity:1;stroke:none;stroke-width:0.26499999;stroke-miterlimit:4;stroke-dasharray:none;stroke-opacity:0.86610879"
         id="path15235"
         inkscape:connector-curvature="0" />
      <path
         d="m 56.772437,206.94333 q 0,1.78144 -0.54218,3.25307 -0.503452,1.43291 -1.858901,2.47854 -1.316722,1.0069 -3.679076,1.58781 -2.323627,0.58091 -5.925248,0.58091 -3.601621,0 -5.963975,-0.58091 -2.362354,-0.58091 -3.717803,-1.58781 -1.316722,-1.04563 -1.858901,-2.47854 -0.503453,-1.47163 -0.503453,-3.25307 v -13.20595 q 0,-1.78144 0.503453,-3.21435 0.542179,-1.47163 1.858901,-2.51726 1.355449,-1.04563 3.717803,-1.62654 2.362354,-0.58091 5.963975,-0.58091 3.601621,0 5.925248,0.58091 2.362354,0.58091 3.679076,1.62654 1.355449,1.04563 1.858901,2.51726 0.54218,1.43291 0.54218,3.21435 z m -15.258482,-1.39418 q 0,0.77454 0.580906,1.31672 0.580907,0.50346 2.672171,0.50346 2.091264,0 2.672171,-0.50346 0.580906,-0.54218 0.580906,-1.31672 v -10.41759 q 0,-0.73582 -0.580906,-1.23927 -0.580907,-0.54218 -2.672171,-0.54218 -2.091264,0 -2.672171,0.54218 -0.580906,0.50345 -0.580906,1.23927 z"
         style="font-style:normal;font-variant:normal;font-weight:normal;font-stretch:normal;font-size:38.72711182px;line-height:1.25;font-family:Bungee;-inkscape-font-specification:'Bungee, Normal';font-variant-ligatures:normal;font-variant-caps:normal;font-variant-numeric:normal;font-feature-settings:normal;text-align:center;writing-mode:lr-tb;text-anchor:middle;fill:#e82020;fill-opacity:1;stroke:none;stroke-width:0.26499999;stroke-miterlimit:4;stroke-dasharray:none;stroke-opacity:0.86610879"
         id="path15237"
         inkscape:connector-curvature="0" />
      <path
         d="m 82.771036,214.26275 h -19.7121 q -0.735815,0 -1.084359,-0.30982 -0.309817,-0.34854 -0.309817,-1.08435 v -25.09517 q 0,-0.73582 0.309817,-1.04563 0.348544,-0.34855 1.084359,-0.34855 h 6.002702 q 0.735815,0 1.045632,0.34855 0.348544,0.30981 0.348544,1.04563 v 19.16992 h 5.305615 v -6.27379 q 0,-0.73582 0.309816,-1.04564 0.348544,-0.34854 1.08436,-0.34854 h 5.615431 q 0.735815,0 1.045632,0.34854 0.348544,0.30982 0.348544,1.04564 v 12.19904 q 0,0.73581 -0.348544,1.08435 -0.309817,0.30982 -1.045632,0.30982 z"
         style="font-style:normal;font-variant:normal;font-weight:normal;font-stretch:normal;font-size:38.72711182px;line-height:1.25;font-family:Bungee;-inkscape-font-specification:'Bungee, Normal';font-variant-ligatures:normal;font-variant-caps:normal;font-variant-numeric:normal;font-feature-settings:normal;text-align:center;writing-mode:lr-tb;text-anchor:middle;fill:#e82020;fill-opacity:1;stroke:none;stroke-width:0.26499999;stroke-miterlimit:4;stroke-dasharray:none;stroke-opacity:0.86610879"
         id="path15239"
         inkscape:connector-curvature="0" />
      <path
         d="m 112.21574,206.94333 q 0,1.78144 -0.54218,3.25307 -0.50345,1.43291 -1.8589,2.47854 -1.31672,1.0069 -3.67907,1.58781 -2.32363,0.58091 -5.92525,0.58091 -3.601624,0 -5.963977,-0.58091 -2.362354,-0.58091 -3.717803,-1.58781 -1.316722,-1.04563 -1.858901,-2.47854 -0.503453,-1.47163 -0.503453,-3.25307 v -13.20595 q 0,-1.78144 0.503453,-3.21435 0.542179,-1.47163 1.858901,-2.51726 1.355449,-1.04563 3.717803,-1.62654 2.362353,-0.58091 5.963977,-0.58091 3.60162,0 5.92525,0.58091 2.36235,0.58091 3.67907,1.62654 1.35545,1.04563 1.8589,2.51726 0.54218,1.43291 0.54218,3.21435 z m -15.258479,-1.39418 q 0,0.77454 0.580906,1.31672 0.580907,0.50346 2.672173,0.50346 2.09126,0 2.67217,-0.50346 0.58091,-0.54218 0.58091,-1.31672 v -10.41759 q 0,-0.73582 -0.58091,-1.23927 -0.58091,-0.54218 -2.67217,-0.54218 -2.091266,0 -2.672173,0.54218 -0.580906,0.50345 -0.580906,1.23927 z"
         style="font-style:normal;font-variant:normal;font-weight:normal;font-stretch:normal;font-size:38.72711182px;line-height:1.25;font-family:Bungee;-inkscape-font-specification:'Bungee, Normal';font-variant-ligatures:normal;font-variant-caps:normal;font-variant-numeric:normal;font-feature-settings:normal;text-align:center;writing-mode:lr-tb;text-anchor:middle;fill:#e82020;fill-opacity:1;stroke:none;stroke-width:0.26499999;stroke-miterlimit:4;stroke-dasharray:none;stroke-opacity:0.86610879"
         id="path15241"
         inkscape:connector-curvature="0" />
      <path
         d="m 138.40798,214.26275 h -12.19904 q -4.84089,0 -7.20325,-1.93635 -2.32362,-1.93636 -2.32362,-5.96398 v -12.08286 q 0,-4.02762 2.32362,-5.96397 2.36236,-1.93636 7.20325,-1.93636 h 9.68178 q 0.73581,0 1.04563,0.34855 0.34854,0.30981 0.34854,1.04563 v 4.68598 q 0,0.73581 -0.34854,1.08436 -0.30982,0.30981 -1.04563,0.30981 h -8.05524 q -1.20054,0 -1.78145,0.50346 -0.58091,0.46472 -0.58091,1.4329 v 9.25578 q 0,0.96818 0.426,1.4329 0.46473,0.46473 1.35545,0.46473 h 3.75653 v -6.04143 q 0,-0.73582 0.30982,-1.04563 0.34854,-0.34855 1.08436,-0.34855 h 6.0027 q 0.73581,0 1.04563,0.34855 0.34854,0.30981 0.34854,1.04563 v 11.96668 q 0,0.73581 -0.34854,1.08435 -0.30982,0.30982 -1.04563,0.30982 z"
         style="font-style:normal;font-variant:normal;font-weight:normal;font-stretch:normal;font-size:38.72711182px;line-height:1.25;font-family:Bungee;-inkscape-font-specification:'Bungee, Normal';font-variant-ligatures:normal;font-variant-caps:normal;font-variant-numeric:normal;font-feature-settings:normal;text-align:center;writing-mode:lr-tb;text-anchor:middle;fill:#e82020;fill-opacity:1;stroke:none;stroke-width:0.26499999;stroke-miterlimit:4;stroke-dasharray:none;stroke-opacity:0.86610879"
         id="path15243"
         inkscape:connector-curvature="0" />
      <path
         d="m 145.33952,214.26275 q -0.73582,0 -1.08436,-0.30982 -0.30982,-0.34854 -0.30982,-1.08435 v -4.60853 q 0,-0.73582 0.30982,-1.04563 0.34854,-0.34855 1.08436,-0.34855 h 3.83398 v -13.01231 h -3.83398 q -0.73582,0 -1.08436,-0.30981 -0.30982,-0.34855 -0.30982,-1.08436 v -4.68598 q 0,-0.73582 0.30982,-1.04563 0.34854,-0.34855 1.08436,-0.34855 h 16.49775 q 0.73581,0 1.04563,0.34855 0.34854,0.30981 0.34854,1.04563 v 4.68598 q 0,0.73581 -0.34854,1.08436 -0.30982,0.30981 -1.04563,0.30981 h -3.75653 v 13.01231 h 3.75653 q 0.73581,0 1.04563,0.34855 0.34854,0.30981 0.34854,1.04563 v 4.60853 q 0,0.73581 -0.34854,1.08435 -0.30982,0.30982 -1.04563,0.30982 z"
         style="font-style:normal;font-variant:normal;font-weight:normal;font-stretch:normal;font-size:38.72711182px;line-height:1.25;font-family:Bungee;-inkscape-font-specification:'Bungee, Normal';font-variant-ligatures:normal;font-variant-caps:normal;font-variant-numeric:normal;font-feature-settings:normal;text-align:center;writing-mode:lr-tb;text-anchor:middle;fill:#e82020;fill-opacity:1;stroke:none;stroke-width:0.26499999;stroke-miterlimit:4;stroke-dasharray:none;stroke-opacity:0.86610879"
         id="path15245"
         inkscape:connector-curvature="0" />
      <path
         d="m 180.94789,214.26275 h -12.23777 q -0.73581,0 -1.08436,-0.30982 -0.30981,-0.34854 -0.30981,-1.08435 v -4.53108 q 0,-0.73581 0.30981,-1.04563 0.34855,-0.34854 1.08436,-0.34854 h 10.4176 q 0.50345,0 0.73581,-0.30982 0.27109,-0.34854 0.27109,-0.81327 0,-0.65836 -0.27109,-0.96818 -0.23236,-0.30981 -0.73581,-0.34854 l -5.80907,-0.81327 q -2.7109,-0.38727 -4.37617,-1.78145 -1.62653,-1.39417 -1.62653,-4.64725 v -4.06635 q 0,-3.2918 2.12999,-5.03452 2.12999,-1.78145 5.88652,-1.78145 h 10.84359 q 0.73581,0 1.04563,0.34855 0.34855,0.30981 0.34855,1.04563 v 4.60852 q 0,0.73582 -0.34855,1.08436 -0.30982,0.30982 -1.04563,0.30982 h -9.02342 q -0.50345,0 -0.77454,0.34854 -0.27109,0.30982 -0.27109,0.81327 0,0.50346 0.27109,0.852 0.27109,0.34854 0.77454,0.38727 l 5.77034,0.77454 q 2.7109,0.38727 4.37617,1.78145 1.66526,1.39418 1.66526,4.64725 v 4.06635 q 0,3.2918 -2.16872,5.07325 -2.12999,1.74272 -5.84779,1.74272 z"
         style="font-style:normal;font-variant:normal;font-weight:normal;font-stretch:normal;font-size:38.72711182px;line-height:1.25;font-family:Bungee;-inkscape-font-specification:'Bungee, Normal';font-variant-ligatures:normal;font-variant-caps:normal;font-variant-numeric:normal;font-feature-settings:normal;text-align:center;writing-mode:lr-tb;text-anchor:middle;fill:#e82020;fill-opacity:1;stroke:none;stroke-width:0.26499999;stroke-miterlimit:4;stroke-dasharray:none;stroke-opacity:0.86610879"
         id="path15247"
         inkscape:connector-curvature="0" />
      <path
         d="m 205.98981,214.26275 h -6.27379 q -0.73582,0 -1.08436,-0.30982 -0.30982,-0.34854 -0.30982,-1.08435 v -19.01502 h -5.69289 q -0.73581,0 -1.08436,-0.30981 -0.30981,-0.34855 -0.30981,-1.08436 v -4.68598 q 0,-0.73582 0.30981,-1.04563 0.34855,-0.34855 1.08436,-0.34855 h 20.44792 q 0.73581,0 1.04563,0.34855 0.34854,0.30981 0.34854,1.04563 v 4.68598 q 0,0.73581 -0.34854,1.08436 -0.30982,0.30981 -1.04563,0.30981 h -5.69289 v 19.01502 q 0,0.73581 -0.34854,1.08435 -0.30982,0.30982 -1.04563,0.30982 z"
         style="font-style:normal;font-variant:normal;font-weight:normal;font-stretch:normal;font-size:38.72711182px;line-height:1.25;font-family:Bungee;-inkscape-font-specification:'Bungee, Normal';font-variant-ligatures:normal;font-variant-caps:normal;font-variant-numeric:normal;font-feature-settings:normal;text-align:center;writing-mode:lr-tb;text-anchor:middle;fill:#e82020;fill-opacity:1;stroke:none;stroke-width:0.26499999;stroke-miterlimit:4;stroke-dasharray:none;stroke-opacity:0.86610879"
         id="path15249"
         inkscape:connector-curvature="0" />
      <path
         d="m 231.17212,214.26275 h -12.23777 q -0.73582,0 -1.08436,-0.30982 -0.30982,-0.34854 -0.30982,-1.08435 v -4.53108 q 0,-0.73581 0.30982,-1.04563 0.34854,-0.34854 1.08436,-0.34854 h 10.41759 q 0.50346,0 0.73582,-0.30982 0.27109,-0.34854 0.27109,-0.81327 0,-0.65836 -0.27109,-0.96818 -0.23236,-0.30981 -0.73582,-0.34854 l -5.80906,-0.81327 q -2.7109,-0.38727 -4.37617,-1.78145 -1.62654,-1.39417 -1.62654,-4.64725 v -4.06635 q 0,-3.2918 2.13,-5.03452 2.12999,-1.78145 5.88652,-1.78145 h 10.84359 q 0.73581,0 1.04563,0.34855 0.34854,0.30981 0.34854,1.04563 v 4.60852 q 0,0.73582 -0.34854,1.08436 -0.30982,0.30982 -1.04563,0.30982 h -9.02342 q -0.50345,0 -0.77454,0.34854 -0.27109,0.30982 -0.27109,0.81327 0,0.50346 0.27109,0.852 0.27109,0.34854 0.77454,0.38727 l 5.77034,0.77454 q 2.7109,0.38727 4.37616,1.78145 1.66527,1.39418 1.66527,4.64725 v 4.06635 q 0,3.2918 -2.16872,5.07325 -2.12999,1.74272 -5.84779,1.74272 z"
         style="font-style:normal;font-variant:normal;font-weight:normal;font-stretch:normal;font-size:38.72711182px;line-height:1.25;font-family:Bungee;-inkscape-font-specification:'Bungee, Normal';font-variant-ligatures:normal;font-variant-caps:normal;font-variant-numeric:normal;font-feature-settings:normal;text-align:center;writing-mode:lr-tb;text-anchor:middle;fill:#e82020;fill-opacity:1;stroke:none;stroke-width:0.26499999;stroke-miterlimit:4;stroke-dasharray:none;stroke-opacity:0.86610879"
         id="path15251"
         inkscape:connector-curvature="0" />
    </g>
    <flowRoot
       xml:space="preserve"
       id="flowRoot4540"
       style="font-style:normal;font-weight:normal;font-size:96px;line-height:10.25;font-family:sans-serif;letter-spacing:0px;word-spacing:0px;fill:#000000;fill-opacity:1;stroke:none"
       transform="scale(0.26458333)"><flowRegion
         id="flowRegion4542"><rect
           id="rect4544"
           width="600"
           height="1922.8572"
           x="180"
           y="285.37683" /></flowRegion><flowPara
         id="flowPara4546"></flowPara></flowRoot>  </g>
</svg>
